<?xml version="1.0" encoding="UTF-8" standalone="no"?>
<!-- Generated by graphviz version 2.28.0 (20121116.1526)
 -->

<!-- Title: Toplevel Pages: 1 -->

<svg
   xmlns:dc="http://purl.org/dc/elements/1.1/"
   xmlns:cc="http://creativecommons.org/ns#"
   xmlns:rdf="http://www.w3.org/1999/02/22-rdf-syntax-ns#"
   xmlns:svg="http://www.w3.org/2000/svg"
   xmlns="http://www.w3.org/2000/svg"
   xmlns:sodipodi="http://sodipodi.sourceforge.net/DTD/sodipodi-0.dtd"
   xmlns:inkscape="http://www.inkscape.org/namespaces/inkscape"
   width="453.58197"
   height="307.5"
   viewBox="0 0 362.86558 246"
   id="svg2"
   version="1.1"
   inkscape:version="0.48.3.1 r9886"
   sodipodi:docname="fig1a.svg">
  <metadata
     id="metadata122">
    <rdf:RDF>
      <cc:Work
         rdf:about="">
        <dc:format>image/svg+xml</dc:format>
        <dc:type
           rdf:resource="http://purl.org/dc/dcmitype/StillImage" />
      </cc:Work>
    </rdf:RDF>
  </metadata>
  <defs
     id="defs120" />
  <sodipodi:namedview
     pagecolor="#ffffff"
     bordercolor="#666666"
     borderopacity="1"
     objecttolerance="10"
     gridtolerance="10"
     guidetolerance="10"
     inkscape:pageopacity="0"
     inkscape:pageshadow="2"
     inkscape:window-width="1855"
     inkscape:window-height="1056"
     id="namedview118"
     showgrid="false"
     fit-margin-top="0"
     fit-margin-left="0"
     fit-margin-right="0"
     fit-margin-bottom="0"
     inkscape:zoom="1.5489468"
     inkscape:cx="31.890889"
     inkscape:cy="155.58108"
     inkscape:window-x="65"
     inkscape:window-y="24"
     inkscape:window-maximized="1"
     inkscape:current-layer="graph1" />
  <g
     id="graph1"
     class="graph"
     transform="translate(-162.5,329.5)">
    <title
       id="title5">Toplevel</title>
    <!-- F -->
    <g
       id="node1"
       class="node"
       transform="translate(371.86558,0.51648728)">
      <title
         id="title10">F</title>
      <polygon
         points="153,-321 153,-300 8,-300 8,-300 8,-321 "
         id="polygon12"
         style="fill:none;stroke:#000000" />
      <text
         x="11"
         y="-307.29999"
         font-size="14.00"
         id="text14"
         style="font-size:14px;text-anchor:start;font-family:'Helvetica,sans-Serif'">Function f(%arg_x)      </text>
      <polygon
         points="153,-300 153,-284 8,-284 8,-284 8,-300 "
         id="polygon16"
         style="fill:none;stroke:#000000" />
      <text
         x="11"
         y="-290"
         font-size="10.00"
         id="text18"
         style="font-size:10px;text-anchor:start;font-family:'Helvetica,sans-Serif'">%1 = load %arg_x</text>
      <polygon
         points="153,-284 153,-268 8,-268 8,-268 8,-284 "
         id="polygon20"
         style="fill:none;stroke:#000000" />
      <text
         x="11"
         y="-274"
         font-size="10.00"
         id="text22"
         style="font-size:10px;text-anchor:start;font-family:'Helvetica,sans-Serif'">%2 = load %1</text>
      <polygon
         points="153,-268 153,-252 8,-252 8,-252 8,-268 "
         id="polygon24"
         style="fill:none;stroke:#000000" />
      <text
         x="11"
         y="-258"
         font-size="10.00"
         id="text26"
         style="font-size:10px;text-anchor:start;font-family:'Helvetica,sans-Serif'">store 5 -&gt; %1</text>
      <polygon
         points="153,-252 153,-236 8,-236 8,-236 8,-252 "
         id="polygon28"
         style="fill:none;stroke:#000000" />
      <text
         x="11"
         y="-242"
         font-size="10.00"
         id="text30"
         style="font-size:10px;text-anchor:start;font-family:'Helvetica,sans-Serif'">ret %2</text>
    </g>
    <!-- MainBB0 -->
    <g
       id="node2"
       class="node">
      <title
         id="title33">MainBB0</title>
      <polygon
         points="187,-308 187,-308 187,-329 312,-329 312,-308 "
         id="polygon35"
         style="fill:none;stroke:#000000" />
      <text
         x="190"
         y="-315.29999"
         font-size="14.00"
         id="text37"
         style="font-size:14px;text-anchor:start;font-family:'Helvetica,sans-Serif'">Function main()      </text>
      <polygon
         points="187,-292 187,-292 187,-308 312,-308 312,-292 "
         id="polygon39"
         style="fill:none;stroke:#000000" />
      <text
         x="190"
         y="-298"
         font-size="10.00"
         id="text41"
         style="font-size:10px;text-anchor:start;font-family:'Helvetica,sans-Serif'">%1 = alloca i32*</text>
      <polygon
         points="187,-276 187,-276 187,-292 312,-292 312,-276 "
         id="polygon43"
         style="fill:none;stroke:#000000" />
      <text
         x="190"
         y="-282"
         font-size="10.00"
         id="text45"
         style="font-size:10px;text-anchor:start;font-family:'Helvetica,sans-Serif'">%2 = alloca i32</text>
      <polygon
         points="187,-260 187,-260 187,-276 312,-276 312,-260 "
         id="polygon47"
         style="fill:none;stroke:#000000" />
      <text
         x="190"
         y="-266"
         font-size="10.00"
         id="text49"
         style="font-size:10px;text-anchor:start;font-family:'Helvetica,sans-Serif'">store 7 -&gt; %2</text>
      <polygon
         points="187,-244 187,-244 187,-260 312,-260 312,-244 "
         id="polygon51"
         style="fill:none;stroke:#000000" />
      <text
         x="190"
         y="-250"
         font-size="10.00"
         id="text53"
         style="font-size:10px;text-anchor:start;font-family:'Helvetica,sans-Serif'">store %2 -&gt; %1</text>
      <polygon
         points="187,-228 187,-228 187,-244 312,-244 312,-228 "
         id="polygon55"
         style="fill:none;stroke:#000000" />
      <text
         x="190"
         y="-234"
         font-size="10.00"
         id="text57"
         style="font-size:10px;text-anchor:start;font-family:'Helvetica,sans-Serif'">br BB1</text>
    </g>
    <!-- MainBB1 -->
    <g
       id="node4"
       class="node">
      <title
         id="title60">MainBB1</title>
      <polygon
         points="163,-164 163,-164 163,-183 336,-183 336,-164 "
         id="polygon62"
         style="fill:none;stroke:#000000" />
      <text
         x="166"
         y="-170.89999"
         font-size="12.00"
         id="text64"
         style="font-size:12px;text-anchor:start;font-family:'Helvetica,sans-Serif'">BB1</text>
      <polygon
         points="163,-148 163,-148 163,-164 336,-164 336,-148 "
         id="polygon66"
         style="fill:none;stroke:#000000" />
      <text
         x="166"
         y="-154"
         font-size="10.00"
         id="text68"
         style="font-size:10px;text-anchor:start;font-family:'Helvetica,sans-Serif'">%3 = phi [ BB0 -&gt; 0, BB1 -&gt; %5 ]      </text>
      <polygon
         points="163,-132 163,-132 163,-148 336,-148 336,-132 "
         id="polygon70"
         style="fill:none;stroke:#000000" />
      <text
         x="166"
         y="-138"
         font-size="10.00"
         id="text72"
         style="font-size:10px;text-anchor:start;font-family:'Helvetica,sans-Serif'">%4 = call f(%1)</text>
      <polygon
         points="163,-116 163,-116 163,-132 336,-132 336,-116 "
         id="polygon74"
         style="fill:none;stroke:#000000" />
      <text
         x="166"
         y="-122"
         font-size="10.00"
         id="text76"
         style="font-size:10px;text-anchor:start;font-family:'Helvetica,sans-Serif'">%5 = add %3, %4</text>
      <polygon
         points="163,-100 163,-100 163,-116 336,-116 336,-100 "
         id="polygon78"
         style="fill:none;stroke:#000000" />
      <text
         x="166"
         y="-106"
         font-size="10.00"
         id="text80"
         style="font-size:10px;text-anchor:start;font-family:'Helvetica,sans-Serif'">%6 = cmp gt %5, 10</text>
      <polygon
         points="163,-84 163,-84 163,-100 336,-100 336,-84 "
         id="polygon82"
         style="fill:none;stroke:#000000" />
      <text
         x="166"
         y="-90"
         font-size="10.00"
         id="text84"
         style="font-size:10px;text-anchor:start;font-family:'Helvetica,sans-Serif'">br %6, BB2, BB1</text>
    </g>
    <!-- MainBB0&#45;&gt;MainBB1 -->
    <g
       id="edge2"
       class="edge">
      <title
         id="title87">MainBB0-&gt;MainBB1</title>
      <path
         d="m 249,-224.345 c 0,8.658 0,17.689 0,26.54"
         id="path89"
         inkscape:connector-curvature="0"
         style="fill:none;stroke:#000000" />
      <polygon
         points="249,-187.531 245.5,-197.531 252.5,-197.531 252.5,-197.531 "
         id="polygon91"
         style="fill:#000000;stroke:#000000" />
    </g>
    <!-- MainBB1&#45;&gt;MainBB1 -->
    <g
       id="edge4"
       class="edge"
       transform="translate(-1.03296,-19.109759)">
      <title
         id="title94">MainBB1-&gt;MainBB1</title>
      <path
         d="m 343.373,-151.796 c 10.695,3.333 17.627,9.265 17.627,17.796 0,5.732 -3.129,10.29 -8.426,13.676"
         id="path96"
         inkscape:connector-curvature="0"
         style="fill:none;stroke:#000000" />
      <polygon
         points="351.069,-123.486 353.93,-117.097 353.93,-117.097 343.373,-116.204 "
         id="polygon98"
         style="fill:#000000;stroke:#000000" />
    </g>
    <!-- MainBB2 -->
    <g
       id="node7"
       class="node"
       transform="translate(166.82303,-93.99936)">
      <title
         id="title101">MainBB2</title>
      <polygon
         points="228,-39 270,-39 270,-20 228,-20 228,-20 "
         id="polygon103"
         style="fill:none;stroke:#000000" />
      <text
         x="231"
         y="-26.9"
         font-size="12.00"
         id="text105"
         style="font-size:12px;text-anchor:start;font-family:'Helvetica,sans-Serif'">BB2</text>
      <polygon
         points="228,-20 270,-20 270,-4 228,-4 228,-4 "
         id="polygon107"
         style="fill:none;stroke:#000000" />
      <text
         x="231"
         y="-10"
         font-size="10.00"
         id="text109"
         style="font-size:10px;text-anchor:start;font-family:'Helvetica,sans-Serif'">ret %5  </text>
    </g>
    <!-- MainBB1&#45;&gt;MainBB2 -->
    <g
       id="edge6"
       class="edge"
       transform="matrix(0,-1,1,0,424.05262,130.76018)">
      <title
         id="title112">MainBB1-&gt;MainBB2</title>
      <path
         d="m 249,-80.2553 c 0,9.0479 0,18.1772 0,26.4065"
         id="path114"
         inkscape:connector-curvature="0"
         style="fill:none;stroke:#000000" />
      <polygon
         points="252.5,-53.6316 252.5,-53.6316 249,-43.6317 245.5,-53.6317 "
         id="polygon116"
         style="fill:#000000;stroke:#000000" />
    </g>
  </g>
</svg>
