<?xml version="1.0" encoding="UTF-8" standalone="no"?>
<!-- Generated by graphviz version 2.28.0 (20121116.1526)
 -->

<!-- Title: Toplevel Pages: 1 -->

<svg
   xmlns:dc="http://purl.org/dc/elements/1.1/"
   xmlns:cc="http://creativecommons.org/ns#"
   xmlns:rdf="http://www.w3.org/1999/02/22-rdf-syntax-ns#"
   xmlns:svg="http://www.w3.org/2000/svg"
   xmlns="http://www.w3.org/2000/svg"
   xmlns:sodipodi="http://sodipodi.sourceforge.net/DTD/sodipodi-0.dtd"
   xmlns:inkscape="http://www.inkscape.org/namespaces/inkscape"
   width="581.25"
   height="710"
   viewBox="0 0 465 568"
   id="svg2"
   version="1.1"
   inkscape:version="0.48.3.1 r9886"
   sodipodi:docname="fig1b.svg">
  <metadata
     id="metadata298">
    <rdf:RDF>
      <cc:Work
         rdf:about="">
        <dc:format>image/svg+xml</dc:format>
        <dc:type
           rdf:resource="http://purl.org/dc/dcmitype/StillImage" />
      </cc:Work>
    </rdf:RDF>
  </metadata>
  <defs
     id="defs296" />
  <sodipodi:namedview
     pagecolor="#ffffff"
     bordercolor="#666666"
     borderopacity="1"
     objecttolerance="10"
     gridtolerance="10"
     guidetolerance="10"
     inkscape:pageopacity="0"
     inkscape:pageshadow="2"
     inkscape:window-width="1855"
     inkscape:window-height="1056"
     id="namedview294"
     showgrid="false"
     fit-margin-top="0"
     fit-margin-left="0"
     fit-margin-right="0"
     fit-margin-bottom="0"
     inkscape:zoom="0.87590753"
     inkscape:cx="414.03602"
     inkscape:cy="309.22669"
     inkscape:window-x="65"
     inkscape:window-y="24"
     inkscape:window-maximized="1"
     inkscape:current-layer="graph1" />
  <g
     id="graph1"
     class="graph"
     transform="translate(-7.5,571.5)">
    <title
       id="title5">Toplevel</title>
    <!-- MainBB0 -->
    <g
       id="node1"
       class="node">
      <title
         id="title10">MainBB0</title>
      <polygon
         points="320,-550 203,-550 203,-550 203,-571 320,-571 "
         id="polygon12"
         style="fill:none;stroke:#000000" />
      <text
         x="206"
         y="-557.29999"
         font-size="14.00"
         id="text14"
         style="font-size:14px;text-anchor:start;font-family:'Helvetica,sans-Serif'">Function main()    </text>
      <polygon
         points="320,-534 203,-534 203,-534 203,-550 320,-550 "
         id="polygon16"
         style="fill:none;stroke:#000000" />
      <text
         x="206"
         y="-540"
         font-size="10.00"
         id="text18"
         style="font-size:10px;text-anchor:start;font-family:'Helvetica,sans-Serif'">%1 = alloca i32*</text>
      <polygon
         points="320,-518 203,-518 203,-518 203,-534 320,-534 "
         id="polygon20"
         style="fill:none;stroke:#000000" />
      <text
         x="206"
         y="-524"
         font-size="10.00"
         id="text22"
         style="font-size:10px;text-anchor:start;font-family:'Helvetica,sans-Serif'">%2 = alloca i32</text>
      <polygon
         points="320,-502 203,-502 203,-502 203,-518 320,-518 "
         id="polygon24"
         style="fill:none;stroke:#000000" />
      <text
         x="206"
         y="-508"
         font-size="10.00"
         id="text26"
         style="font-size:10px;text-anchor:start;font-family:'Helvetica,sans-Serif'">store 7 -&gt; %2</text>
      <polygon
         points="320,-486 203,-486 203,-486 203,-502 320,-502 "
         id="polygon28"
         style="fill:none;stroke:#000000" />
      <text
         x="206"
         y="-492"
         font-size="10.00"
         id="text30"
         style="font-size:10px;text-anchor:start;font-family:'Helvetica,sans-Serif'">store %2 -&gt; %1</text>
      <polygon
         points="320,-470 203,-470 203,-470 203,-486 320,-486 "
         id="polygon32"
         style="fill:none;stroke:#000000" />
      <text
         x="206"
         y="-476"
         font-size="10.00"
         id="text34"
         style="font-size:10px;text-anchor:start;font-family:'Helvetica,sans-Serif'">br BB1</text>
    </g>
    <!-- MainBB1_1 -->
    <g
       id="node3"
       class="node">
      <title
         id="title37">MainBB1_1</title>
      <polygon
         points="388,-406 135,-406 135,-406 135,-425 388,-425 "
         id="polygon39"
         style="fill:none;stroke:#000000" />
      <text
         x="138"
         y="-412.89999"
         font-size="12.00"
         id="text41"
         style="font-size:12px;text-anchor:start;font-family:'Helvetica,sans-Serif'">BB1 iteration 1</text>
      <polygon
         points="305,-390 135,-390 135,-390 135,-406 305,-406 "
         id="polygon43"
         style="fill:none;stroke:#000000" />
      <text
         x="138"
         y="-396"
         font-size="10.00"
         font-weight="bold"
         id="text45"
         style="font-size:10px;font-weight:bold;text-anchor:start;font-family:'Helvetica,sans-Serif'">Instruction</text>
      <polygon
         points="388,-390 305,-390 305,-390 305,-406 388,-406 "
         id="polygon47"
         style="fill:none;stroke:#000000" />
      <text
         x="331"
         y="-396"
         font-size="10.00"
         font-weight="bold"
         id="text49"
         style="font-size:10px;font-weight:bold;text-anchor:start;font-family:'Helvetica,sans-Serif'">Result</text>
      <polygon
         points="305,-374 135,-374 135,-374 135,-390 305,-390 "
         id="polygon51"
         style="fill:none;stroke:#000000" />
      <text
         x="138"
         y="-380"
         font-size="10.00"
         id="text53"
         style="font-size:10px;text-anchor:start;font-family:'Helvetica,sans-Serif'">%3 = phi [ BB0 -&gt; 0, BB1 -&gt; %5 ]     </text>
      <polygon
         points="388,-374 305,-374 305,-374 305,-390 388,-390 "
         id="polygon55"
         style="fill:none;stroke:#000000" />
      <text
         x="343.5"
         y="-380"
         font-size="10.00"
         id="text57"
         style="font-size:10px;text-anchor:start;font-family:'Helvetica,sans-Serif'">0</text>
      <polygon
         points="305,-358 135,-358 135,-358 135,-374 305,-374 "
         id="polygon59"
         style="fill:none;stroke:#000000" />
      <text
         x="138"
         y="-364"
         font-size="10.00"
         id="text61"
         style="font-size:10px;text-anchor:start;font-family:'Helvetica,sans-Serif'">%4 = call f(%1)</text>
      <polygon
         points="388,-358 305,-358 305,-358 305,-374 388,-374 "
         id="polygon63"
         style="fill:none;stroke:#000000" />
      <text
         x="343.5"
         y="-364"
         font-size="10.00"
         id="text65"
         style="font-size:10px;text-anchor:start;font-family:'Helvetica,sans-Serif'">7</text>
      <polygon
         points="305,-342 135,-342 135,-342 135,-358 305,-358 "
         id="polygon67"
         style="fill:none;stroke:#000000" />
      <text
         x="138"
         y="-348"
         font-size="10.00"
         id="text69"
         style="font-size:10px;text-anchor:start;font-family:'Helvetica,sans-Serif'">%5 = add %3, %4</text>
      <polygon
         points="388,-342 305,-342 305,-342 305,-358 388,-358 "
         id="polygon71"
         style="fill:none;stroke:#000000" />
      <text
         x="343.5"
         y="-348"
         font-size="10.00"
         id="text73"
         style="font-size:10px;text-anchor:start;font-family:'Helvetica,sans-Serif'">7</text>
      <polygon
         points="305,-326 135,-326 135,-326 135,-342 305,-342 "
         id="polygon75"
         style="fill:none;stroke:#000000" />
      <text
         x="138"
         y="-332"
         font-size="10.00"
         id="text77"
         style="font-size:10px;text-anchor:start;font-family:'Helvetica,sans-Serif'">%6 = cmp gt %5, 10</text>
      <polygon
         points="388,-326 305,-326 305,-326 305,-342 388,-342 "
         id="polygon79"
         style="fill:none;stroke:#000000" />
      <text
         x="335.5"
         y="-332"
         font-size="10.00"
         id="text81"
         style="font-size:10px;text-anchor:start;font-family:'Helvetica,sans-Serif'">false</text>
      <polygon
         points="305,-310 135,-310 135,-310 135,-326 305,-326 "
         id="polygon83"
         style="fill:none;stroke:#000000" />
      <text
         x="138"
         y="-316"
         font-size="10.00"
         id="text85"
         style="font-size:10px;text-anchor:start;font-family:'Helvetica,sans-Serif'">br %6, BB2, BB1</text>
      <polygon
         points="388,-310 305,-310 305,-310 305,-326 388,-326 "
         id="polygon87"
         style="fill:none;stroke:#000000" />
      <text
         x="308"
         y="-316"
         font-size="10.00"
         id="text89"
         style="font-size:10px;text-anchor:start;font-family:'Helvetica,sans-Serif'"> BB1 iteration 2  </text>
    </g>
    <!-- MainBB0&#45;&gt;MainBB1_1 -->
    <g
       id="edge2"
       class="edge">
      <title
         id="title92">MainBB0-&gt;MainBB1_1</title>
      <path
         d="m 261,-466.338 c 0,8.623 0,17.661 0,26.61"
         id="path94"
         inkscape:connector-curvature="0"
         style="fill:none;stroke:#000000" />
      <polygon
         points="264.5,-439.69 264.5,-439.69 261,-429.69 257.5,-439.69 "
         id="polygon96"
         style="fill:#000000;stroke:#000000" />
    </g>
    <!-- F_1 -->
    <g
       id="node4"
       class="node">
      <title
         id="title99">F_1</title>
      <polygon
         points="225,-237 8,-237 8,-237 8,-258 225,-258 "
         id="polygon101"
         style="fill:none;stroke:#000000" />
      <text
         x="11"
         y="-244.3"
         font-size="14.00"
         id="text103"
         style="font-size:14px;text-anchor:start;font-family:'Helvetica,sans-Serif'">Function f(%arg_x)</text>
      <polygon
         points="111,-221 8,-221 8,-221 8,-237 111,-237 "
         id="polygon105"
         style="fill:none;stroke:#000000" />
      <text
         x="11"
         y="-227"
         font-size="10.00"
         font-weight="bold"
         id="text107"
         style="font-size:10px;font-weight:bold;text-anchor:start;font-family:'Helvetica,sans-Serif'">Instruction</text>
      <polygon
         points="225,-221 111,-221 111,-221 111,-237 225,-237 "
         id="polygon109"
         style="fill:none;stroke:#000000" />
      <text
         x="152.5"
         y="-227"
         font-size="10.00"
         font-weight="bold"
         id="text111"
         style="font-size:10px;font-weight:bold;text-anchor:start;font-family:'Helvetica,sans-Serif'">Result</text>
      <polygon
         points="111,-205 8,-205 8,-205 8,-221 111,-221 "
         id="polygon113"
         style="fill:none;stroke:#000000" />
      <text
         x="11"
         y="-211"
         font-size="10.00"
         id="text115"
         style="font-size:10px;text-anchor:start;font-family:'Helvetica,sans-Serif'">%1 = load %arg_x     </text>
      <polygon
         points="225,-205 111,-205 111,-205 111,-221 225,-221 "
         id="polygon117"
         style="fill:none;stroke:#000000" />
      <text
         x="114"
         y="-211"
         font-size="10.00"
         id="text119"
         style="font-size:10px;text-anchor:start;font-family:'Helvetica,sans-Serif'"> pointer %1@main + 0  </text>
      <polygon
         points="111,-189 8,-189 8,-189 8,-205 111,-205 "
         id="polygon121"
         style="fill:none;stroke:#000000" />
      <text
         x="11"
         y="-195"
         font-size="10.00"
         id="text123"
         style="font-size:10px;text-anchor:start;font-family:'Helvetica,sans-Serif'">%2 = load %1</text>
      <polygon
         points="225,-189 111,-189 111,-189 111,-205 225,-205 "
         id="polygon125"
         style="fill:none;stroke:#000000" />
      <text
         x="165"
         y="-195"
         font-size="10.00"
         id="text127"
         style="font-size:10px;text-anchor:start;font-family:'Helvetica,sans-Serif'">7</text>
      <polygon
         points="111,-173 8,-173 8,-173 8,-189 111,-189 "
         id="polygon129"
         style="fill:none;stroke:#000000" />
      <text
         x="11"
         y="-179"
         font-size="10.00"
         id="text131"
         style="font-size:10px;text-anchor:start;font-family:'Helvetica,sans-Serif'">store 5 -&gt; %1</text>
      <polygon
         points="225,-173 111,-173 111,-173 111,-189 225,-189 "
         id="polygon133"
         style="fill:none;stroke:#000000" />
      <polygon
         points="111,-157 8,-157 8,-157 8,-173 111,-173 "
         id="polygon135"
         style="fill:none;stroke:#000000" />
      <text
         x="11"
         y="-163"
         font-size="10.00"
         id="text137"
         style="font-size:10px;text-anchor:start;font-family:'Helvetica,sans-Serif'">ret %2</text>
      <polygon
         points="225,-157 111,-157 111,-157 111,-173 225,-173 "
         id="polygon139"
         style="fill:none;stroke:#000000" />
      <text
         x="165"
         y="-163"
         font-size="10.00"
         id="text141"
         style="font-size:10px;text-anchor:start;font-family:'Helvetica,sans-Serif'">7</text>
    </g>
    <!-- MainBB1_1&#45;&gt;F_1 -->
    <g
       id="edge6"
       class="edge">
      <title
         id="title144">MainBB1_1:call_1-&gt;F_1</title>
      <path
         d="m 134,-366 c -39.5792,0 -40.2667,49.857 -33.327,93.38"
         id="path146"
         inkscape:connector-curvature="0"
         style="fill:none;stroke:#000000" />
      <polygon
         points="104.152,-273.044 104.152,-273.044 102.419,-262.591 97.256,-271.843 "
         id="polygon148"
         style="fill:#000000;stroke:#000000" />
    </g>
    <!-- MainBB1_2 -->
    <g
       id="node6"
       class="node">
      <title
         id="title151">MainBB1_2</title>
      <polygon
         points="472,-246 259,-246 259,-246 259,-265 472,-265 "
         id="polygon153"
         style="fill:none;stroke:#000000" />
      <text
         x="262"
         y="-252.89999"
         font-size="12.00"
         id="text155"
         style="font-size:12px;text-anchor:start;font-family:'Helvetica,sans-Serif'">BB1 iteration 2</text>
      <polygon
         points="429,-230 259,-230 259,-230 259,-246 429,-246 "
         id="polygon157"
         style="fill:none;stroke:#000000" />
      <text
         x="262"
         y="-236"
         font-size="10.00"
         font-weight="bold"
         id="text159"
         style="font-size:10px;font-weight:bold;text-anchor:start;font-family:'Helvetica,sans-Serif'">Instruction</text>
      <polygon
         points="472,-230 429,-230 429,-230 429,-246 472,-246 "
         id="polygon161"
         style="fill:none;stroke:#000000" />
      <text
         x="435"
         y="-236"
         font-size="10.00"
         font-weight="bold"
         id="text163"
         style="font-size:10px;font-weight:bold;text-anchor:start;font-family:'Helvetica,sans-Serif'">Result</text>
      <polygon
         points="429,-214 259,-214 259,-214 259,-230 429,-230 "
         id="polygon165"
         style="fill:none;stroke:#000000" />
      <text
         x="262"
         y="-220"
         font-size="10.00"
         id="text167"
         style="font-size:10px;text-anchor:start;font-family:'Helvetica,sans-Serif'">%3 = phi [ BB0 -&gt; 0, BB1 -&gt; %5 ]     </text>
      <polygon
         points="472,-214 429,-214 429,-214 429,-230 472,-230 "
         id="polygon169"
         style="fill:none;stroke:#000000" />
      <text
         x="447.5"
         y="-220"
         font-size="10.00"
         id="text171"
         style="font-size:10px;text-anchor:start;font-family:'Helvetica,sans-Serif'">7</text>
      <polygon
         points="429,-198 259,-198 259,-198 259,-214 429,-214 "
         id="polygon173"
         style="fill:none;stroke:#000000" />
      <text
         x="262"
         y="-204"
         font-size="10.00"
         id="text175"
         style="font-size:10px;text-anchor:start;font-family:'Helvetica,sans-Serif'">%4 = call f(%1)</text>
      <polygon
         points="472,-198 429,-198 429,-198 429,-214 472,-214 "
         id="polygon177"
         style="fill:none;stroke:#000000" />
      <text
         x="447.5"
         y="-204"
         font-size="10.00"
         id="text179"
         style="font-size:10px;text-anchor:start;font-family:'Helvetica,sans-Serif'">5</text>
      <polygon
         points="429,-182 259,-182 259,-182 259,-198 429,-198 "
         id="polygon181"
         style="fill:none;stroke:#000000" />
      <text
         x="262"
         y="-188"
         font-size="10.00"
         id="text183"
         style="font-size:10px;text-anchor:start;font-family:'Helvetica,sans-Serif'">%5 = add %3, %4</text>
      <polygon
         points="472,-182 429,-182 429,-182 429,-198 472,-198 "
         id="polygon185"
         style="fill:none;stroke:#000000" />
      <text
         x="445"
         y="-188"
         font-size="10.00"
         id="text187"
         style="font-size:10px;text-anchor:start;font-family:'Helvetica,sans-Serif'">12</text>
      <polygon
         points="429,-166 259,-166 259,-166 259,-182 429,-182 "
         id="polygon189"
         style="fill:none;stroke:#000000" />
      <text
         x="262"
         y="-172"
         font-size="10.00"
         id="text191"
         style="font-size:10px;text-anchor:start;font-family:'Helvetica,sans-Serif'">%6 = cmp gt %5, 10</text>
      <polygon
         points="472,-166 429,-166 429,-166 429,-182 472,-182 "
         id="polygon193"
         style="fill:none;stroke:#000000" />
      <text
         x="442"
         y="-172"
         font-size="10.00"
         id="text195"
         style="font-size:10px;text-anchor:start;font-family:'Helvetica,sans-Serif'">true</text>
      <polygon
         points="429,-150 259,-150 259,-150 259,-166 429,-166 "
         id="polygon197"
         style="fill:none;stroke:#000000" />
      <text
         x="262"
         y="-156"
         font-size="10.00"
         id="text199"
         style="font-size:10px;text-anchor:start;font-family:'Helvetica,sans-Serif'">br %6, BB2, BB1</text>
      <polygon
         points="472,-150 429,-150 429,-150 429,-166 472,-166 "
         id="polygon201"
         style="fill:none;stroke:#000000" />
      <text
         x="441"
         y="-156"
         font-size="10.00"
         id="text203"
         style="font-size:10px;text-anchor:start;font-family:'Helvetica,sans-Serif'">BB2</text>
    </g>
    <!-- MainBB1_1&#45;&gt;MainBB1_2 -->
    <g
       id="edge4"
       class="edge">
      <title
         id="title206">MainBB1_1-&gt;MainBB1_2</title>
      <path
         d="m 300.912,-306.365 c 6.052,9.195 12.335,18.741 18.497,28.102"
         id="path208"
         inkscape:connector-curvature="0"
         style="fill:none;stroke:#000000" />
      <polygon
         points="322.449,-280.011 322.449,-280.011 325.023,-269.734 316.602,-276.162 "
         id="polygon210"
         style="fill:#000000;stroke:#000000" />
    </g>
    <!-- F_2 -->
    <g
       id="node8"
       class="node"
       transform="translate(-47.493598,0)">
      <title
         id="title213">F_2</title>
      <polygon
         points="148,-84 148,-84 148,-105 362,-105 362,-84 "
         id="polygon215"
         style="fill:none;stroke:#000000" />
      <text
         x="151"
         y="-91.300003"
         font-size="14.00"
         id="text217"
         style="font-size:14px;text-anchor:start;font-family:'Helvetica,sans-Serif'">Function f(%arg_x)</text>
      <polygon
         points="148,-68 148,-68 148,-84 248,-84 248,-68 "
         id="polygon219"
         style="fill:none;stroke:#000000" />
      <text
         x="151"
         y="-74"
         font-size="10.00"
         font-weight="bold"
         id="text221"
         style="font-size:10px;font-weight:bold;text-anchor:start;font-family:'Helvetica,sans-Serif'">Instruction</text>
      <polygon
         points="248,-68 248,-68 248,-84 362,-84 362,-68 "
         id="polygon223"
         style="fill:none;stroke:#000000" />
      <text
         x="286.5"
         y="-74"
         font-size="10.00"
         font-weight="bold"
         id="text225"
         style="font-size:10px;font-weight:bold;text-anchor:start;font-family:'Helvetica,sans-Serif'">Result</text>
      <polygon
         points="148,-52 148,-52 148,-68 248,-68 248,-52 "
         id="polygon227"
         style="fill:none;stroke:#000000" />
      <text
         x="151"
         y="-58"
         font-size="10.00"
         id="text229"
         style="font-size:10px;text-anchor:start;font-family:'Helvetica,sans-Serif'">%1 = load %arg_x    </text>
      <polygon
         points="248,-52 248,-52 248,-68 362,-68 362,-52 "
         id="polygon231"
         style="fill:none;stroke:#000000" />
      <text
         x="251"
         y="-58"
         font-size="10.00"
         id="text233"
         style="font-size:10px;text-anchor:start;font-family:'Helvetica,sans-Serif'"> pointer %1@main + 0  </text>
      <polygon
         points="148,-36 148,-36 148,-52 248,-52 248,-36 "
         id="polygon235"
         style="fill:none;stroke:#000000" />
      <text
         x="151"
         y="-42"
         font-size="10.00"
         id="text237"
         style="font-size:10px;text-anchor:start;font-family:'Helvetica,sans-Serif'">%2 = load %1</text>
      <polygon
         points="248,-36 248,-36 248,-52 362,-52 362,-36 "
         id="polygon239"
         style="fill:none;stroke:#000000" />
      <text
         x="302"
         y="-42"
         font-size="10.00"
         id="text241"
         style="font-size:10px;text-anchor:start;font-family:'Helvetica,sans-Serif'">5</text>
      <polygon
         points="148,-20 148,-20 148,-36 248,-36 248,-20 "
         id="polygon243"
         style="fill:none;stroke:#000000" />
      <text
         x="151"
         y="-26"
         font-size="10.00"
         id="text245"
         style="font-size:10px;text-anchor:start;font-family:'Helvetica,sans-Serif'">store 5 -&gt; %1</text>
      <polygon
         points="248,-20 248,-20 248,-36 362,-36 362,-20 "
         id="polygon247"
         style="fill:none;stroke:#000000" />
      <polygon
         points="148,-4 148,-4 148,-20 248,-20 248,-4 "
         id="polygon249"
         style="fill:none;stroke:#000000" />
      <text
         x="151"
         y="-10"
         font-size="10.00"
         id="text251"
         style="font-size:10px;text-anchor:start;font-family:'Helvetica,sans-Serif'">ret %2</text>
      <polygon
         points="248,-4 248,-4 248,-20 362,-20 362,-4 "
         id="polygon253"
         style="fill:none;stroke:#000000" />
      <text
         x="302"
         y="-10"
         font-size="10.00"
         id="text255"
         style="font-size:10px;text-anchor:start;font-family:'Helvetica,sans-Serif'">5</text>
    </g>
    <!-- MainBB1_2&#45;&gt;F_2 -->
    <g
       id="edge10"
       class="edge">
      <title
         id="title258">MainBB1_2:call_2-&gt;F_2</title>
      <path
         d="m 258,-206 c -18.348,0 -17.41,45.429 -12.856,86.285"
         id="path260"
         inkscape:connector-curvature="0"
         style="fill:none;stroke:#000000" />
      <polygon
         points="248.626,-120.074 248.626,-120.074 246.336,-109.73 241.675,-119.245 "
         id="polygon262"
         style="fill:#000000;stroke:#000000" />
    </g>
    <!-- MainBB2 -->
    <g
       id="node10"
       class="node"
       transform="translate(-57.54032,0)">
      <title
         id="title265">MainBB2</title>
      <polygon
         points="397,-61 397,-61 397,-80 510,-80 510,-61 "
         id="polygon267"
         style="fill:none;stroke:#000000" />
      <text
         x="400"
         y="-67.900002"
         font-size="12.00"
         id="text269"
         style="font-size:12px;text-anchor:start;font-family:'Helvetica,sans-Serif'">BB2</text>
      <polygon
         points="397,-45 397,-45 397,-61 467,-61 467,-45 "
         id="polygon271"
         style="fill:none;stroke:#000000" />
      <text
         x="400"
         y="-51"
         font-size="10.00"
         font-weight="bold"
         id="text273"
         style="font-size:10px;font-weight:bold;text-anchor:start;font-family:'Helvetica,sans-Serif'">Instruction    </text>
      <polygon
         points="467,-45 467,-45 467,-61 510,-61 510,-45 "
         id="polygon275"
         style="fill:none;stroke:#000000" />
      <text
         x="470"
         y="-51"
         font-size="10.00"
         font-weight="bold"
         id="text277"
         style="font-size:10px;font-weight:bold;text-anchor:start;font-family:'Helvetica,sans-Serif'">Result</text>
      <polygon
         points="397,-29 397,-29 397,-45 467,-45 467,-29 "
         id="polygon279"
         style="fill:none;stroke:#000000" />
      <text
         x="400"
         y="-35"
         font-size="10.00"
         id="text281"
         style="font-size:10px;text-anchor:start;font-family:'Helvetica,sans-Serif'">ret %5</text>
      <polygon
         points="467,-29 467,-29 467,-45 510,-45 510,-29 "
         id="polygon283"
         style="fill:none;stroke:#000000" />
      <text
         x="483"
         y="-35"
         font-size="10.00"
         id="text285"
         style="font-size:10px;text-anchor:start;font-family:'Helvetica,sans-Serif'">12</text>
    </g>
    <!-- MainBB1_2&#45;&gt;MainBB2 -->
    <g
       id="edge8"
       class="edge"
       transform="translate(-28.313491,0.91333842)">
      <title
         id="title288">MainBB1_2-&gt;MainBB2</title>
      <path
         d="m 400.286,-146.453 c 10.393,17.833 21.461,36.826 30.759,52.7796"
         id="path290"
         inkscape:connector-curvature="0"
         style="fill:none;stroke:#000000" />
      <polygon
         points="434.285,-95.065 436.296,-84.6628 428.237,-91.5404 434.285,-95.065 "
         id="polygon292"
         style="fill:#000000;stroke:#000000" />
    </g>
  </g>
</svg>
