<?xml version="1.0" encoding="UTF-8" standalone="no"?>
<!DOCTYPE svg PUBLIC "-//W3C//DTD SVG 1.1//EN"
 "http://www.w3.org/Graphics/SVG/1.1/DTD/svg11.dtd">
<!-- Generated by graphviz version 2.28.0 (20121116.1526)
 -->
<!-- Title: Toplevel Pages: 1 -->
<svg width="372pt" height="198pt"
 viewBox="0.00 0.00 372.00 198.00" xmlns="http://www.w3.org/2000/svg" xmlns:xlink="http://www.w3.org/1999/xlink">
<g id="graph1" class="graph" transform="scale(1 1) rotate(0) translate(4 194)">
<title>Toplevel</title>
<polygon fill="white" stroke="white" points="-4,5 -4,-194 369,-194 369,5 -4,5"/>
<!-- MainBB0 -->
<g id="node1" class="node"><title>MainBB0</title>
<polygon fill="none" stroke="black" points="8,-164 8,-185 357,-185 357,-164 8,-164"/>
<text text-anchor="start" x="11" y="-171.3" font-family="Helvetica,sans-Serif" font-size="14.00">Function main(i32 %dynamic)</text>
<polygon fill="none" stroke="black" points="8,-148 8,-164 170,-164 170,-148 8,-148"/>
<text text-anchor="start" x="11" y="-154" font-family="Helvetica,sans-Serif" font-size="10.00" font-weight="bold">Instruction</text>
<polygon fill="none" stroke="black" points="170,-148 170,-164 357,-164 357,-148 170,-148"/>
<text text-anchor="start" x="249" y="-154" font-family="Helvetica,sans-Serif" font-size="10.00" font-weight="bold">Result</text>
<polygon fill="none" stroke="black" points="8,-132 8,-148 170,-148 170,-132 8,-132"/>
<text text-anchor="start" x="11" y="-138" font-family="Helvetica,sans-Serif" font-size="10.00">%1 = alloca [ 10 x i32 ]</text>
<polygon fill="none" stroke="black" points="170,-132 170,-148 357,-148 357,-132 170,-132"/>
<polygon fill="none" stroke="black" points="8,-116 8,-132 170,-132 170,-116 8,-116"/>
<text text-anchor="start" x="11" y="-122" font-family="Helvetica,sans-Serif" font-size="10.00">%2 = alloca i64</text>
<polygon fill="none" stroke="black" points="170,-116 170,-132 357,-132 357,-116 170,-116"/>
<polygon fill="none" stroke="black" points="8,-100 8,-116 170,-116 170,-100 8,-100"/>
<text text-anchor="start" x="11" y="-106" font-family="Helvetica,sans-Serif" font-size="10.00">%3 = getelementptr %1, 3</text>
<polygon fill="none" stroke="black" points="170,-100 170,-116 357,-116 357,-100 170,-100"/>
<text text-anchor="start" x="215.5" y="-106" font-family="Helvetica,sans-Serif" font-size="10.00">pointer %1@main + 3</text>
<polygon fill="none" stroke="black" points="8,-84 8,-100 170,-100 170,-84 8,-84"/>
<text text-anchor="start" x="11" y="-90" font-family="Helvetica,sans-Serif" font-size="10.00">%4 = getelementptr %1, %dynamic</text>
<polygon fill="none" stroke="black" points="170,-84 170,-100 357,-100 357,-84 170,-84"/>
<text text-anchor="start" x="215.5" y="-90" font-family="Helvetica,sans-Serif" font-size="10.00">pointer %1@main + ?</text>
<polygon fill="none" stroke="black" points="8,-68 8,-84 170,-84 170,-68 8,-68"/>
<text text-anchor="start" x="11" y="-74" font-family="Helvetica,sans-Serif" font-size="10.00">store 80 &#45;&gt; %2</text>
<polygon fill="none" stroke="black" points="170,-68 170,-84 357,-84 357,-68 170,-68"/>
<text text-anchor="start" x="233" y="-74" font-family="Helvetica,sans-Serif" font-size="10.00">(Modifies %2)</text>
<polygon fill="none" stroke="black" points="8,-52 8,-68 170,-68 170,-52 8,-52"/>
<text text-anchor="start" x="11" y="-58" font-family="Helvetica,sans-Serif" font-size="10.00">store 5 &#45;&gt; %3</text>
<polygon fill="none" stroke="black" points="170,-52 170,-68 357,-68 357,-52 170,-52"/>
<text text-anchor="start" x="211.5" y="-58" font-family="Helvetica,sans-Serif" font-size="10.00">(Modifies %3 = (%1[3]))</text>
<polygon fill="none" stroke="black" points="8,-36 8,-52 170,-52 170,-36 8,-36"/>
<text text-anchor="start" x="11" y="-42" font-family="Helvetica,sans-Serif" font-size="10.00">store 6 &#45;&gt; %4</text>
<polygon fill="none" stroke="black" points="170,-36 170,-52 357,-52 357,-36 170,-36"/>
<text text-anchor="start" x="221" y="-42" font-family="Helvetica,sans-Serif" font-size="10.00">(Modifies all of %1)</text>
<polygon fill="none" stroke="black" points="8,-20 8,-36 170,-36 170,-20 8,-20"/>
<text text-anchor="start" x="11" y="-26" font-family="Helvetica,sans-Serif" font-size="10.00">%5 = load %3</text>
<polygon fill="none" stroke="black" points="170,-20 170,-36 357,-36 357,-20 170,-20"/>
<text text-anchor="start" x="204.5" y="-26" font-family="Helvetica,sans-Serif" font-size="10.00">? (store 6 &#45;&gt; %4 interferes)</text>
<polygon fill="none" stroke="black" points="8,-4 8,-20 170,-20 170,-4 8,-4"/>
<text text-anchor="start" x="11" y="-10" font-family="Helvetica,sans-Serif" font-size="10.00">%6 = load %2</text>
<polygon fill="none" stroke="black" points="170,-4 170,-20 357,-20 357,-4 170,-4"/>
<text text-anchor="start" x="173" y="-10" font-family="Helvetica,sans-Serif" font-size="10.00">80 (neither store 5 nor store 6 interferes) &#160;</text>
</g>
</g>
</svg>
