<?xml version="1.0" encoding="UTF-8" standalone="no"?>
<!DOCTYPE svg PUBLIC "-//W3C//DTD SVG 1.1//EN"
 "http://www.w3.org/Graphics/SVG/1.1/DTD/svg11.dtd">
<!-- Generated by graphviz version 2.28.0 (20121116.1526)
 -->
<!-- Title: Toplevel Pages: 1 -->
<svg width="252pt" height="342pt"
 viewBox="0.00 0.00 252.00 342.00" xmlns="http://www.w3.org/2000/svg" xmlns:xlink="http://www.w3.org/1999/xlink">
<g id="graph1" class="graph" transform="scale(1 1) rotate(0) translate(4 338)">
<title>Toplevel</title>
<polygon fill="white" stroke="white" points="-4,5 -4,-338 249,-338 249,5 -4,5"/>
<!-- MainBB0 -->
<g id="node1" class="node"><title>MainBB0</title>
<polygon fill="none" stroke="black" points="8,-308 8,-329 237,-329 237,-308 8,-308"/>
<text text-anchor="start" x="11" y="-315.3" font-family="Helvetica,sans-Serif" font-size="14.00">Function main(i32 %dynamic)</text>
<polygon fill="none" stroke="black" points="8,-292 8,-308 143,-308 143,-292 8,-292"/>
<text text-anchor="start" x="11" y="-298" font-family="Helvetica,sans-Serif" font-size="10.00" font-weight="bold">Instruction</text>
<polygon fill="none" stroke="black" points="143,-292 143,-308 237,-308 237,-292 143,-292"/>
<text text-anchor="start" x="175.5" y="-298" font-family="Helvetica,sans-Serif" font-size="10.00" font-weight="bold">Result</text>
<polygon fill="none" stroke="black" points="8,-276 8,-292 143,-292 143,-276 8,-276"/>
<text text-anchor="start" x="11" y="-282" font-family="Helvetica,sans-Serif" font-size="10.00">%1 = 0</text>
<polygon fill="none" stroke="black" points="143,-276 143,-292 237,-292 237,-276 143,-276"/>
<text text-anchor="start" x="187" y="-282" font-family="Helvetica,sans-Serif" font-size="10.00">0</text>
<polygon fill="none" stroke="black" points="8,-260 8,-276 143,-276 143,-260 8,-260"/>
<text text-anchor="start" x="11" y="-266" font-family="Helvetica,sans-Serif" font-size="10.00">%2 = cmp eq %dynamic, 1 &#160;&#160;</text>
<polygon fill="none" stroke="black" points="143,-260 143,-276 237,-276 237,-260 143,-260"/>
<text text-anchor="start" x="187" y="-266" font-family="Helvetica,sans-Serif" font-size="10.00">?</text>
<polygon fill="none" stroke="black" points="8,-244 8,-260 143,-260 143,-244 8,-244"/>
<text text-anchor="start" x="11" y="-250" font-family="Helvetica,sans-Serif" font-size="10.00">br %2, BB1, BB2</text>
<polygon fill="none" stroke="black" points="143,-244 143,-260 237,-260 237,-244 143,-244"/>
<text text-anchor="start" x="187" y="-250" font-family="Helvetica,sans-Serif" font-size="10.00">?</text>
</g>
<!-- MainBB1 -->
<g id="node3" class="node"><title>MainBB1</title>
<polygon fill="none" stroke="black" points="21,-180 21,-199 132,-199 132,-180 21,-180"/>
<text text-anchor="start" x="24" y="-186.9" font-family="Helvetica,sans-Serif" font-size="12.00">BB1</text>
<polygon fill="none" stroke="black" points="21,-164 21,-180 97,-180 97,-164 21,-164"/>
<text text-anchor="start" x="24" y="-170" font-family="Helvetica,sans-Serif" font-size="10.00" font-weight="bold">Iinstruction</text>
<polygon fill="none" stroke="black" points="97,-164 97,-180 132,-180 132,-164 97,-164"/>
<text text-anchor="start" x="100" y="-170" font-family="Helvetica,sans-Serif" font-size="10.00" font-weight="bold">Result</text>
<polygon fill="none" stroke="black" points="21,-148 21,-164 97,-164 97,-148 21,-148"/>
<text text-anchor="start" x="24" y="-154" font-family="Helvetica,sans-Serif" font-size="10.00">%3 = or %1, 16</text>
<polygon fill="none" stroke="black" points="97,-148 97,-164 132,-164 132,-148 97,-148"/>
<text text-anchor="start" x="109" y="-154" font-family="Helvetica,sans-Serif" font-size="10.00">16</text>
<polygon fill="none" stroke="black" points="21,-132 21,-148 97,-148 97,-132 21,-132"/>
<text text-anchor="start" x="24" y="-138" font-family="Helvetica,sans-Serif" font-size="10.00">br BB2</text>
<polygon fill="none" stroke="black" points="97,-132 97,-148 132,-148 132,-132 97,-132"/>
<text text-anchor="start" x="105" y="-138" font-family="Helvetica,sans-Serif" font-size="10.00">BB2</text>
</g>
<!-- MainBB0&#45;&gt;MainBB1 -->
<g id="edge2" class="edge"><title>MainBB0&#45;&gt;MainBB1</title>
<path fill="none" stroke="black" d="M104.347,-240.332C100.886,-231.379 97.2542,-221.984 93.789,-213.019"/>
<polygon fill="black" stroke="black" points="96.9804,-211.568 90.1102,-203.503 90.4512,-214.092 96.9804,-211.568"/>
</g>
<!-- MainBB2 -->
<g id="node5" class="node"><title>MainBB2</title>
<polygon fill="none" stroke="black" points="14,-68 14,-87 231,-87 231,-68 14,-68"/>
<text text-anchor="start" x="17" y="-74.9" font-family="Helvetica,sans-Serif" font-size="12.00">BB2</text>
<polygon fill="none" stroke="black" points="14,-52 14,-68 191,-68 191,-52 14,-52"/>
<text text-anchor="start" x="17" y="-58" font-family="Helvetica,sans-Serif" font-size="10.00" font-weight="bold">Instruction</text>
<polygon fill="none" stroke="black" points="191,-52 191,-68 231,-68 231,-52 191,-52"/>
<text text-anchor="start" x="196.5" y="-58" font-family="Helvetica,sans-Serif" font-size="10.00" font-weight="bold">Result</text>
<polygon fill="none" stroke="black" points="14,-36 14,-52 191,-52 191,-36 14,-36"/>
<text text-anchor="start" x="17" y="-42" font-family="Helvetica,sans-Serif" font-size="10.00">%4 = phi [ Entry &#45;&gt; %1, BB1 &#45;&gt; %3 ] &#160;&#160;</text>
<polygon fill="none" stroke="black" points="191,-36 191,-52 231,-52 231,-36 191,-36"/>
<text text-anchor="start" x="194" y="-42" font-family="Helvetica,sans-Serif" font-size="10.00">{ 0, 16 }</text>
<polygon fill="none" stroke="black" points="14,-20 14,-36 191,-36 191,-20 14,-20"/>
<text text-anchor="start" x="17" y="-26" font-family="Helvetica,sans-Serif" font-size="10.00">%5 = and %4, 32</text>
<polygon fill="none" stroke="black" points="191,-20 191,-36 231,-36 231,-20 191,-20"/>
<text text-anchor="start" x="208" y="-26" font-family="Helvetica,sans-Serif" font-size="10.00">0</text>
<polygon fill="none" stroke="black" points="14,-4 14,-20 191,-20 191,-4 14,-4"/>
<text text-anchor="start" x="17" y="-10" font-family="Helvetica,sans-Serif" font-size="10.00">ret %5</text>
<polygon fill="none" stroke="black" points="191,-4 191,-20 231,-20 231,-4 191,-4"/>
<text text-anchor="start" x="208" y="-10" font-family="Helvetica,sans-Serif" font-size="10.00">0</text>
</g>
<!-- MainBB0&#45;&gt;MainBB2 -->
<g id="edge4" class="edge"><title>MainBB0&#45;&gt;MainBB2</title>
<path fill="none" stroke="black" d="M139.245,-240.192C142.868,-228.554 146.15,-215.955 148,-204 153.165,-170.619 153.225,-161.371 148,-128 146.639,-119.307 144.503,-110.273 142.027,-101.527"/>
<polygon fill="black" stroke="black" points="145.337,-100.381 139.11,-91.8096 138.633,-102.394 145.337,-100.381"/>
</g>
<!-- MainBB1&#45;&gt;MainBB2 -->
<g id="edge6" class="edge"><title>MainBB1&#45;&gt;MainBB2</title>
<path fill="none" stroke="black" d="M90.3025,-128.311C93.6693,-119.674 97.3277,-110.29 100.923,-101.067"/>
<polygon fill="black" stroke="black" points="104.261,-102.141 104.632,-91.5529 97.7388,-99.5988 104.261,-102.141"/>
</g>
</g>
</svg>
