<?xml version="1.0" encoding="UTF-8" standalone="no"?>
<!DOCTYPE svg PUBLIC "-//W3C//DTD SVG 1.1//EN"
 "http://www.w3.org/Graphics/SVG/1.1/DTD/svg11.dtd">
<!-- Generated by graphviz version 2.28.0 (20121116.1526)
 -->
<!-- Title: Toplevel Pages: 1 -->
<svg width="608pt" height="390pt"
 viewBox="0.00 0.00 608.00 390.00" xmlns="http://www.w3.org/2000/svg" xmlns:xlink="http://www.w3.org/1999/xlink">
<g id="graph1" class="graph" transform="scale(1 1) rotate(0) translate(4 386)">
<title>Toplevel</title>
<polygon fill="white" stroke="white" points="-4,5 -4,-386 605,-386 605,5 -4,5"/>
<!-- MainBB0 -->
<g id="node1" class="node"><title>MainBB0</title>
<polygon fill="none" stroke="black" points="203,-356 203,-377 398,-377 398,-356 203,-356"/>
<text text-anchor="start" x="206" y="-363.3" font-family="Helvetica,sans-Serif" font-size="14.00">Function main(i32 %dynamic) &#160;</text>
<polygon fill="none" stroke="black" points="203,-340 203,-356 398,-356 398,-340 203,-340"/>
<text text-anchor="start" x="206" y="-346" font-family="Helvetica,sans-Serif" font-size="10.00">%1 = alloca [ 10 x i8 ]</text>
<polygon fill="none" stroke="black" points="203,-324 203,-340 398,-340 398,-324 203,-324"/>
<text text-anchor="start" x="206" y="-330" font-family="Helvetica,sans-Serif" font-size="10.00">store 5 &#45;&gt; @global</text>
<polygon fill="none" stroke="black" points="203,-308 203,-324 398,-324 398,-308 203,-308"/>
<text text-anchor="start" x="206" y="-314" font-family="Helvetica,sans-Serif" font-size="10.00">bb BB1</text>
</g>
<!-- MainBB1 -->
<g id="node3" class="node"><title>MainBB1</title>
<polygon fill="none" stroke="black" points="8,-244 8,-263 274,-263 274,-244 8,-244"/>
<text text-anchor="start" x="11" y="-250.9" font-family="Helvetica,sans-Serif" font-size="12.00">BB1 (invariants)</text>
<polygon fill="none" stroke="black" points="8,-228 8,-244 172,-244 172,-228 8,-228"/>
<text text-anchor="start" x="11" y="-234" font-family="Helvetica,sans-Serif" font-size="10.00" font-weight="bold">Instruction</text>
<polygon fill="none" stroke="black" points="172,-228 172,-244 274,-244 274,-228 172,-228"/>
<text text-anchor="start" x="208.5" y="-234" font-family="Helvetica,sans-Serif" font-size="10.00" font-weight="bold">Result</text>
<polygon fill="none" stroke="black" points="8,-212 8,-228 172,-228 172,-212 8,-212"/>
<text text-anchor="start" x="11" y="-218" font-family="Helvetica,sans-Serif" font-size="10.00">%2 = phi [ BB0 &#45;&gt; %1, BB1 &#45;&gt; %4 ]</text>
<polygon fill="none" stroke="black" points="172,-212 172,-228 274,-228 274,-212 172,-212"/>
<text text-anchor="start" x="175" y="-218" font-family="Helvetica,sans-Serif" font-size="10.00">pointer %1@main + ?</text>
<polygon fill="none" stroke="black" points="8,-196 8,-212 172,-212 172,-196 8,-196"/>
<text text-anchor="start" x="11" y="-202" font-family="Helvetica,sans-Serif" font-size="10.00">%3 = phi [ BB0 &#45;&gt; 0, BB1 &#45;&gt; %5 ]</text>
<polygon fill="none" stroke="black" points="172,-196 172,-212 274,-212 274,-196 172,-196"/>
<text text-anchor="start" x="220" y="-202" font-family="Helvetica,sans-Serif" font-size="10.00">?</text>
<polygon fill="none" stroke="black" points="8,-180 8,-196 172,-196 172,-180 8,-180"/>
<text text-anchor="start" x="11" y="-186" font-family="Helvetica,sans-Serif" font-size="10.00">store 0 &#45;&gt; %2</text>
<polygon fill="none" stroke="black" points="172,-180 172,-196 274,-196 274,-180 172,-180"/>
<text text-anchor="start" x="180.5" y="-186" font-family="Helvetica,sans-Serif" font-size="10.00">(Modifies all of %1)</text>
<polygon fill="none" stroke="black" points="8,-164 8,-180 172,-180 172,-164 8,-164"/>
<text text-anchor="start" x="11" y="-170" font-family="Helvetica,sans-Serif" font-size="10.00">%4 = getelementptr %2, 1</text>
<polygon fill="none" stroke="black" points="172,-164 172,-180 274,-180 274,-164 172,-164"/>
<text text-anchor="start" x="175" y="-170" font-family="Helvetica,sans-Serif" font-size="10.00">pointer %1@main + ?</text>
<polygon fill="none" stroke="black" points="8,-148 8,-164 172,-164 172,-148 8,-148"/>
<text text-anchor="start" x="11" y="-154" font-family="Helvetica,sans-Serif" font-size="10.00">%5 = add %3, 1</text>
<polygon fill="none" stroke="black" points="172,-148 172,-164 274,-164 274,-148 172,-148"/>
<text text-anchor="start" x="220" y="-154" font-family="Helvetica,sans-Serif" font-size="10.00">?</text>
<polygon fill="none" stroke="black" points="8,-132 8,-148 172,-148 172,-132 8,-132"/>
<text text-anchor="start" x="11" y="-138" font-family="Helvetica,sans-Serif" font-size="10.00">%6 = cmp eq %5, %dynamic</text>
<polygon fill="none" stroke="black" points="172,-132 172,-148 274,-148 274,-132 172,-132"/>
<text text-anchor="start" x="220" y="-138" font-family="Helvetica,sans-Serif" font-size="10.00">?</text>
<polygon fill="none" stroke="black" points="8,-116 8,-132 172,-132 172,-116 8,-116"/>
<text text-anchor="start" x="11" y="-122" font-family="Helvetica,sans-Serif" font-size="10.00">br %6, BB2, BB1</text>
<polygon fill="none" stroke="black" points="172,-116 172,-132 274,-132 274,-116 172,-116"/>
<text text-anchor="start" x="220" y="-122" font-family="Helvetica,sans-Serif" font-size="10.00">?</text>
</g>
<!-- MainBB0&#45;&gt;MainBB1 -->
<g id="edge2" class="edge"><title>MainBB0&#45;&gt;MainBB1</title>
<path fill="none" stroke="black" d="M260.288,-304.286C250.722,-295.201 240.12,-285.133 229.298,-274.855"/>
<polygon fill="black" stroke="black" points="231.442,-272.065 221.781,-267.717 226.622,-277.141 231.442,-272.065"/>
</g>
<!-- MainBB1Iter1 -->
<g id="node5" class="node"><title>MainBB1Iter1</title>
<polygon fill="none" stroke="black" points="326,-244 326,-263 592,-263 592,-244 326,-244"/>
<text text-anchor="start" x="329" y="-250.9" font-family="Helvetica,sans-Serif" font-size="12.00">BB1 (iteration 1)</text>
<polygon fill="none" stroke="black" points="326,-228 326,-244 490,-244 490,-228 326,-228"/>
<text text-anchor="start" x="329" y="-234" font-family="Helvetica,sans-Serif" font-size="10.00" font-weight="bold">Instruction</text>
<polygon fill="none" stroke="black" points="490,-228 490,-244 592,-244 592,-228 490,-228"/>
<text text-anchor="start" x="526.5" y="-234" font-family="Helvetica,sans-Serif" font-size="10.00" font-weight="bold">Result</text>
<polygon fill="none" stroke="black" points="326,-212 326,-228 490,-228 490,-212 326,-212"/>
<text text-anchor="start" x="329" y="-218" font-family="Helvetica,sans-Serif" font-size="10.00">%2 = phi [ BB0 &#45;&gt; %1, BB1 &#45;&gt; %4 ]</text>
<polygon fill="none" stroke="black" points="490,-212 490,-228 592,-228 592,-212 490,-212"/>
<text text-anchor="start" x="493" y="-218" font-family="Helvetica,sans-Serif" font-size="10.00">pointer %1@main + 0</text>
<polygon fill="none" stroke="black" points="326,-196 326,-212 490,-212 490,-196 326,-196"/>
<text text-anchor="start" x="329" y="-202" font-family="Helvetica,sans-Serif" font-size="10.00">%3 = phi [ BB0 &#45;&gt; 0, BB1 &#45;&gt; %5 ]</text>
<polygon fill="none" stroke="black" points="490,-196 490,-212 592,-212 592,-196 490,-196"/>
<text text-anchor="start" x="538" y="-202" font-family="Helvetica,sans-Serif" font-size="10.00">0</text>
<polygon fill="none" stroke="black" points="326,-180 326,-196 490,-196 490,-180 326,-180"/>
<text text-anchor="start" x="329" y="-186" font-family="Helvetica,sans-Serif" font-size="10.00">store 0 &#45;&gt; %2</text>
<polygon fill="none" stroke="black" points="490,-180 490,-196 592,-196 592,-180 490,-180"/>
<text text-anchor="start" x="505" y="-186" font-family="Helvetica,sans-Serif" font-size="10.00">(Modifies %1[0])</text>
<polygon fill="none" stroke="black" points="326,-164 326,-180 490,-180 490,-164 326,-164"/>
<text text-anchor="start" x="329" y="-170" font-family="Helvetica,sans-Serif" font-size="10.00">%4 = getelementptr %2, 1</text>
<polygon fill="none" stroke="black" points="490,-164 490,-180 592,-180 592,-164 490,-164"/>
<text text-anchor="start" x="493" y="-170" font-family="Helvetica,sans-Serif" font-size="10.00">pointer %1@main + 1</text>
<polygon fill="none" stroke="black" points="326,-148 326,-164 490,-164 490,-148 326,-148"/>
<text text-anchor="start" x="329" y="-154" font-family="Helvetica,sans-Serif" font-size="10.00">%5 = add %3, 1</text>
<polygon fill="none" stroke="black" points="490,-148 490,-164 592,-164 592,-148 490,-148"/>
<text text-anchor="start" x="538" y="-154" font-family="Helvetica,sans-Serif" font-size="10.00">1</text>
<polygon fill="none" stroke="black" points="326,-132 326,-148 490,-148 490,-132 326,-132"/>
<text text-anchor="start" x="329" y="-138" font-family="Helvetica,sans-Serif" font-size="10.00">%6 = cmp eq %5, %dynamic</text>
<polygon fill="none" stroke="black" points="490,-132 490,-148 592,-148 592,-132 490,-132"/>
<text text-anchor="start" x="538" y="-138" font-family="Helvetica,sans-Serif" font-size="10.00">?</text>
<polygon fill="none" stroke="black" points="326,-116 326,-132 490,-132 490,-116 326,-116"/>
<text text-anchor="start" x="329" y="-122" font-family="Helvetica,sans-Serif" font-size="10.00">br %6, BB2, BB1</text>
<polygon fill="none" stroke="black" points="490,-116 490,-132 592,-132 592,-116 490,-116"/>
<text text-anchor="start" x="538" y="-122" font-family="Helvetica,sans-Serif" font-size="10.00">?</text>
</g>
<!-- MainBB0&#45;&gt;MainBB1Iter1 -->
<g id="edge4" class="edge"><title>MainBB0&#45;&gt;MainBB1Iter1</title>
<path fill="none" stroke="black" d="M339.712,-304.286C349.278,-295.201 359.88,-285.133 370.702,-274.855"/>
<polygon fill="black" stroke="black" points="373.378,-277.141 378.219,-267.717 368.558,-272.065 373.378,-277.141"/>
</g>
<!-- MainBB1&#45;&gt;MainBB1 -->
<g id="edge6" class="edge"><title>MainBB1&#45;&gt;MainBB1</title>
<path fill="none" stroke="black" d="M282.102,-211.596C293.166,-206.847 300,-199.648 300,-190 300,-183.367 296.77,-177.891 291.156,-173.574"/>
<polygon fill="black" stroke="black" points="292.521,-170.323 282.102,-168.404 289.05,-176.402 292.521,-170.323"/>
</g>
<!-- MainBB2 -->
<g id="node8" class="node"><title>MainBB2</title>
<polygon fill="none" stroke="black" points="16,-52 16,-71 266,-71 266,-52 16,-52"/>
<text text-anchor="start" x="19" y="-58.9" font-family="Helvetica,sans-Serif" font-size="12.00">BB2</text>
<polygon fill="none" stroke="black" points="16,-36 16,-52 107,-52 107,-36 16,-36"/>
<text text-anchor="start" x="19" y="-42" font-family="Helvetica,sans-Serif" font-size="10.00" font-weight="bold">Instruction</text>
<polygon fill="none" stroke="black" points="107,-36 107,-52 266,-52 266,-36 107,-36"/>
<text text-anchor="start" x="172" y="-42" font-family="Helvetica,sans-Serif" font-size="10.00" font-weight="bold">Result</text>
<polygon fill="none" stroke="black" points="16,-20 16,-36 107,-36 107,-20 16,-20"/>
<text text-anchor="start" x="19" y="-26" font-family="Helvetica,sans-Serif" font-size="10.00">%7 = load @global</text>
<polygon fill="none" stroke="black" points="107,-20 107,-36 266,-36 266,-20 107,-20"/>
<text text-anchor="start" x="110" y="-26" font-family="Helvetica,sans-Serif" font-size="10.00">5 (store 0 &#45;&gt; %2 does not interfere)</text>
<polygon fill="none" stroke="black" points="16,-4 16,-20 107,-20 107,-4 16,-4"/>
<text text-anchor="start" x="19" y="-10" font-family="Helvetica,sans-Serif" font-size="10.00">ret %7</text>
<polygon fill="none" stroke="black" points="107,-4 107,-20 266,-20 266,-4 107,-4"/>
<text text-anchor="start" x="183.5" y="-10" font-family="Helvetica,sans-Serif" font-size="10.00">5</text>
</g>
<!-- MainBB1&#45;&gt;MainBB2 -->
<g id="edge8" class="edge"><title>MainBB1&#45;&gt;MainBB2</title>
<path fill="none" stroke="black" d="M141,-112.242C141,-103.322 141,-94.4357 141,-86.0871"/>
<polygon fill="black" stroke="black" points="144.5,-85.8382 141,-75.8382 137.5,-85.8382 144.5,-85.8382"/>
</g>
</g>
</svg>
