<?xml version="1.0" encoding="UTF-8" standalone="no"?>
<!DOCTYPE svg PUBLIC "-//W3C//DTD SVG 1.1//EN"
 "http://www.w3.org/Graphics/SVG/1.1/DTD/svg11.dtd">
<!-- Generated by graphviz version 2.28.0 (20121116.1526)
 -->
<!-- Title: Toplevel Pages: 1 -->
<svg width="602pt" height="416pt"
 viewBox="0.00 0.00 601.62 416.00" xmlns="http://www.w3.org/2000/svg" xmlns:xlink="http://www.w3.org/1999/xlink">
<g id="graph1" class="graph" transform="scale(1 1) rotate(0) translate(4 412)">
<title>Toplevel</title>
<polygon fill="white" stroke="white" points="-4,5 -4,-412 598.615,-412 598.615,5 -4,5"/>
<!-- BSetEntry -->
<g id="node1" class="node"><title>BSetEntry</title>
<polygon fill="none" stroke="black" points="338.5,-366.5 338.5,-387.5 526.5,-387.5 526.5,-366.5 338.5,-366.5"/>
<text text-anchor="start" x="341.5" y="-373.8" font-family="Helvetica,sans-Serif" font-size="14.00">bset(i8**% pptr, i8 %c, i8 %n)</text>
<polygon fill="none" stroke="black" points="338.5,-350.5 338.5,-366.5 433.5,-366.5 433.5,-350.5 338.5,-350.5"/>
<text text-anchor="start" x="341.5" y="-356.5" font-family="Helvetica,sans-Serif" font-size="10.00" font-weight="bold">Instruction</text>
<polygon fill="none" stroke="black" points="433.5,-350.5 433.5,-366.5 526.5,-366.5 526.5,-350.5 433.5,-350.5"/>
<text text-anchor="start" x="464.5" y="-356.5" font-family="Helvetica,sans-Serif" font-size="10.00" font-weight="bold">Result</text>
<polygon fill="none" stroke="black" points="338.5,-334.5 338.5,-350.5 433.5,-350.5 433.5,-334.5 338.5,-334.5"/>
<text text-anchor="start" x="341.5" y="-340.5" font-family="Helvetica,sans-Serif" font-size="10.00">%1 = load %pptr</text>
<polygon fill="none" stroke="black" points="433.5,-334.5 433.5,-350.5 526.5,-350.5 526.5,-334.5 433.5,-334.5"/>
<text text-anchor="start" x="444" y="-340.5" font-family="Helvetica,sans-Serif" font-size="10.00">%buf@main + ?</text>
<polygon fill="none" stroke="black" points="338.5,-318.5 338.5,-334.5 433.5,-334.5 433.5,-318.5 338.5,-318.5"/>
<text text-anchor="start" x="341.5" y="-324.5" font-family="Helvetica,sans-Serif" font-size="10.00">%2 = cmp eq %n, 0</text>
<polygon fill="none" stroke="black" points="433.5,-318.5 433.5,-334.5 526.5,-334.5 526.5,-318.5 433.5,-318.5"/>
<text text-anchor="start" x="469" y="-324.5" font-family="Helvetica,sans-Serif" font-size="10.00">false</text>
<polygon fill="none" stroke="black" points="338.5,-302.5 338.5,-318.5 433.5,-318.5 433.5,-302.5 338.5,-302.5"/>
<text text-anchor="start" x="341.5" y="-308.5" font-family="Helvetica,sans-Serif" font-size="10.00">br %2, Exit, Loop</text>
<polygon fill="none" stroke="black" points="433.5,-302.5 433.5,-318.5 526.5,-318.5 526.5,-302.5 433.5,-302.5"/>
<text text-anchor="start" x="469" y="-308.5" font-family="Helvetica,sans-Serif" font-size="10.00">Loop</text>
</g>
<!-- BSetExit -->
<g id="node3" class="node"><title>BSetExit</title>
<polygon fill="none" stroke="black" points="284.5,-67.5 284.5,-86.5 580.5,-86.5 580.5,-67.5 284.5,-67.5"/>
<text text-anchor="start" x="287.5" y="-74.4" font-family="Helvetica,sans-Serif" font-size="12.00">Exit</text>
<polygon fill="none" stroke="black" points="284.5,-51.5 284.5,-67.5 454.5,-67.5 454.5,-51.5 284.5,-51.5"/>
<text text-anchor="start" x="287.5" y="-57.5" font-family="Helvetica,sans-Serif" font-size="10.00" font-weight="bold">Instruction</text>
<polygon fill="none" stroke="black" points="454.5,-51.5 454.5,-67.5 580.5,-67.5 580.5,-51.5 454.5,-51.5"/>
<text text-anchor="start" x="494.5" y="-57.5" font-family="Helvetica,sans-Serif" font-size="10.00" font-weight="bold">Comment</text>
<polygon fill="none" stroke="black" points="284.5,-35.5 284.5,-51.5 454.5,-51.5 454.5,-35.5 284.5,-35.5"/>
<text text-anchor="start" x="287.5" y="-41.5" font-family="Helvetica,sans-Serif" font-size="10.00">%7 = phi [ Entry &#45;&gt; %1, Loop &#45;&gt; %4 ]</text>
<polygon fill="none" stroke="black" points="454.5,-35.5 454.5,-51.5 580.5,-51.5 580.5,-35.5 454.5,-35.5"/>
<text text-anchor="start" x="471.5" y="-41.5" font-family="Helvetica,sans-Serif" font-size="10.00">(Pointer to next byte)</text>
<polygon fill="none" stroke="black" points="284.5,-19.5 284.5,-35.5 454.5,-35.5 454.5,-19.5 284.5,-19.5"/>
<text text-anchor="start" x="287.5" y="-25.5" font-family="Helvetica,sans-Serif" font-size="10.00">store %7 &#45;&gt; %pptr</text>
<polygon fill="none" stroke="black" points="454.5,-19.5 454.5,-35.5 580.5,-35.5 580.5,-19.5 454.5,-19.5"/>
<text text-anchor="start" x="457.5" y="-25.5" font-family="Helvetica,sans-Serif" font-size="10.00">(Store pointer for next time)</text>
<polygon fill="none" stroke="black" points="284.5,-3.5 284.5,-19.5 454.5,-19.5 454.5,-3.5 284.5,-3.5"/>
<text text-anchor="start" x="287.5" y="-9.5" font-family="Helvetica,sans-Serif" font-size="10.00">ret</text>
</g>
<!-- BSetEntry&#45;&gt;BSetExit -->
<g id="edge2" class="edge"><title>BSetEntry&#45;&gt;BSetExit</title>
<path fill="none" stroke="lightgray" d="M534.531,-308.229C546.919,-299.567 557.923,-289.013 565.7,-276.2 602.92,-214.879 602.92,-176.121 565.7,-114.8 562.065,-108.811 557.725,-103.316 552.869,-98.277"/>
<polygon fill="lightgray" stroke="lightgray" points="555.075,-95.5462 545.405,-91.216 550.264,-100.631 555.075,-95.5462"/>
</g>
<!-- BSetLoop -->
<g id="node5" class="node"><title>BSetLoop</title>
<polygon fill="none" stroke="black" points="310.5,-249.5 310.5,-268.5 554.5,-268.5 554.5,-249.5 310.5,-249.5"/>
<text text-anchor="start" x="313.5" y="-256.4" font-family="Helvetica,sans-Serif" font-size="12.00">Loop</text>
<polygon fill="none" stroke="black" points="310.5,-233.5 310.5,-249.5 476.5,-249.5 476.5,-233.5 310.5,-233.5"/>
<text text-anchor="start" x="313.5" y="-239.5" font-family="Helvetica,sans-Serif" font-size="10.00" font-weight="bold">Instruction</text>
<polygon fill="none" stroke="black" points="476.5,-233.5 476.5,-249.5 554.5,-249.5 554.5,-233.5 476.5,-233.5"/>
<text text-anchor="start" x="500" y="-239.5" font-family="Helvetica,sans-Serif" font-size="10.00" font-weight="bold">Result</text>
<polygon fill="none" stroke="black" points="310.5,-217.5 310.5,-233.5 476.5,-233.5 476.5,-217.5 310.5,-217.5"/>
<text text-anchor="start" x="313.5" y="-223.5" font-family="Helvetica,sans-Serif" font-size="10.00">%2 = phi [ entry &#45;&gt; %1, loop &#45;&gt; %4 ]</text>
<polygon fill="none" stroke="black" points="476.5,-217.5 476.5,-233.5 554.5,-233.5 554.5,-217.5 476.5,-217.5"/>
<text text-anchor="start" x="479.5" y="-223.5" font-family="Helvetica,sans-Serif" font-size="10.00">%buf@main + ?</text>
<polygon fill="none" stroke="black" points="310.5,-201.5 310.5,-217.5 476.5,-217.5 476.5,-201.5 310.5,-201.5"/>
<text text-anchor="start" x="313.5" y="-207.5" font-family="Helvetica,sans-Serif" font-size="10.00">%3 = phi [ entry &#45;&gt; 0, loop &#45;&gt; %5 ]</text>
<polygon fill="none" stroke="black" points="476.5,-201.5 476.5,-217.5 554.5,-217.5 554.5,-201.5 476.5,-201.5"/>
<text text-anchor="start" x="512.5" y="-207.5" font-family="Helvetica,sans-Serif" font-size="10.00">?</text>
<polygon fill="none" stroke="black" points="310.5,-185.5 310.5,-201.5 476.5,-201.5 476.5,-185.5 310.5,-185.5"/>
<text text-anchor="start" x="313.5" y="-191.5" font-family="Helvetica,sans-Serif" font-size="10.00">store c &#45;&gt; %2</text>
<polygon fill="none" stroke="black" points="476.5,-185.5 476.5,-201.5 554.5,-201.5 554.5,-185.5 476.5,-185.5"/>
<polygon fill="none" stroke="black" points="310.5,-169.5 310.5,-185.5 476.5,-185.5 476.5,-169.5 310.5,-169.5"/>
<text text-anchor="start" x="313.5" y="-175.5" font-family="Helvetica,sans-Serif" font-size="10.00">%4 = getelementptr %2, 1</text>
<polygon fill="none" stroke="black" points="476.5,-169.5 476.5,-185.5 554.5,-185.5 554.5,-169.5 476.5,-169.5"/>
<text text-anchor="start" x="479.5" y="-175.5" font-family="Helvetica,sans-Serif" font-size="10.00">%buf@main + ?</text>
<polygon fill="none" stroke="black" points="310.5,-153.5 310.5,-169.5 476.5,-169.5 476.5,-153.5 310.5,-153.5"/>
<text text-anchor="start" x="313.5" y="-159.5" font-family="Helvetica,sans-Serif" font-size="10.00">%5 = add %3, 1</text>
<polygon fill="none" stroke="black" points="476.5,-153.5 476.5,-169.5 554.5,-169.5 554.5,-153.5 476.5,-153.5"/>
<text text-anchor="start" x="512.5" y="-159.5" font-family="Helvetica,sans-Serif" font-size="10.00">?</text>
<polygon fill="none" stroke="black" points="310.5,-137.5 310.5,-153.5 476.5,-153.5 476.5,-137.5 310.5,-137.5"/>
<text text-anchor="start" x="313.5" y="-143.5" font-family="Helvetica,sans-Serif" font-size="10.00">%6 = cmp eq %n, %3</text>
<polygon fill="none" stroke="black" points="476.5,-137.5 476.5,-153.5 554.5,-153.5 554.5,-137.5 476.5,-137.5"/>
<text text-anchor="start" x="512.5" y="-143.5" font-family="Helvetica,sans-Serif" font-size="10.00">?</text>
<polygon fill="none" stroke="black" points="310.5,-121.5 310.5,-137.5 476.5,-137.5 476.5,-121.5 310.5,-121.5"/>
<text text-anchor="start" x="313.5" y="-127.5" font-family="Helvetica,sans-Serif" font-size="10.00">br %6, Exit, Loop</text>
<polygon fill="none" stroke="black" points="476.5,-121.5 476.5,-137.5 554.5,-137.5 554.5,-121.5 476.5,-121.5"/>
</g>
<!-- BSetEntry&#45;&gt;BSetLoop -->
<g id="edge4" class="edge"><title>BSetEntry&#45;&gt;BSetLoop</title>
<path fill="none" stroke="black" d="M432.5,-298.861C432.5,-293.883 432.5,-288.708 432.5,-283.446"/>
<polygon fill="black" stroke="black" points="436,-283.248 432.5,-273.248 429,-283.248 436,-283.248"/>
</g>
<!-- MainLoop -->
<g id="node9" class="node"><title>MainLoop</title>
<polygon fill="none" stroke="black" points="26.5,-233.5 26.5,-252.5 239.5,-252.5 239.5,-233.5 26.5,-233.5"/>
<text text-anchor="start" x="29.5" y="-240.4" font-family="Helvetica,sans-Serif" font-size="12.00">Loop</text>
<polygon fill="none" stroke="black" points="26.5,-217.5 26.5,-233.5 202.5,-233.5 202.5,-217.5 26.5,-217.5"/>
<text text-anchor="start" x="29.5" y="-223.5" font-family="Helvetica,sans-Serif" font-size="10.00" font-weight="bold">Instruction</text>
<polygon fill="none" stroke="black" points="202.5,-217.5 202.5,-233.5 239.5,-233.5 239.5,-217.5 202.5,-217.5"/>
<text text-anchor="start" x="205.5" y="-223.5" font-family="Helvetica,sans-Serif" font-size="10.00" font-weight="bold">Result</text>
<polygon fill="none" stroke="black" points="26.5,-201.5 26.5,-217.5 202.5,-217.5 202.5,-201.5 26.5,-201.5"/>
<text text-anchor="start" x="29.5" y="-207.5" font-family="Helvetica,sans-Serif" font-size="10.00">%count = phi [ entry &#45;&gt; 0, loop &#45;&gt; %1 ]</text>
<polygon fill="none" stroke="black" points="202.5,-201.5 202.5,-217.5 239.5,-217.5 239.5,-201.5 202.5,-201.5"/>
<text text-anchor="start" x="218" y="-207.5" font-family="Helvetica,sans-Serif" font-size="10.00">?</text>
<polygon fill="none" stroke="black" points="26.5,-185.5 26.5,-201.5 202.5,-201.5 202.5,-185.5 26.5,-185.5"/>
<text text-anchor="start" x="29.5" y="-191.5" font-family="Helvetica,sans-Serif" font-size="10.00">call bset(%pptr, 0, %bytes)</text>
<polygon fill="none" stroke="black" points="202.5,-185.5 202.5,-201.5 239.5,-201.5 239.5,-185.5 202.5,-185.5"/>
<polygon fill="none" stroke="black" points="26.5,-169.5 26.5,-185.5 202.5,-185.5 202.5,-169.5 26.5,-169.5"/>
<text text-anchor="start" x="29.5" y="-175.5" font-family="Helvetica,sans-Serif" font-size="10.00">%1 = add %count, 1</text>
<polygon fill="none" stroke="black" points="202.5,-169.5 202.5,-185.5 239.5,-185.5 239.5,-169.5 202.5,-169.5"/>
<text text-anchor="start" x="218" y="-175.5" font-family="Helvetica,sans-Serif" font-size="10.00">?</text>
<polygon fill="none" stroke="black" points="26.5,-153.5 26.5,-169.5 202.5,-169.5 202.5,-153.5 26.5,-153.5"/>
<text text-anchor="start" x="29.5" y="-159.5" font-family="Helvetica,sans-Serif" font-size="10.00">%2 = cmp eq %1, %dynamic</text>
<polygon fill="none" stroke="black" points="202.5,-153.5 202.5,-169.5 239.5,-169.5 239.5,-153.5 202.5,-153.5"/>
<text text-anchor="start" x="218" y="-159.5" font-family="Helvetica,sans-Serif" font-size="10.00">?</text>
<polygon fill="none" stroke="black" points="26.5,-137.5 26.5,-153.5 202.5,-153.5 202.5,-137.5 26.5,-137.5"/>
<text text-anchor="start" x="29.5" y="-143.5" font-family="Helvetica,sans-Serif" font-size="10.00">br %2, Exit, Loop</text>
<polygon fill="none" stroke="black" points="202.5,-137.5 202.5,-153.5 239.5,-153.5 239.5,-137.5 202.5,-137.5"/>
<text text-anchor="start" x="218" y="-143.5" font-family="Helvetica,sans-Serif" font-size="10.00">?</text>
</g>
<!-- BSetExit&#45;&gt;MainLoop -->
<g id="edge10" class="edge"><title>BSetExit&#45;&gt;MainLoop:call_bset</title>
<path fill="none" stroke="black" d="M332.608,-91.1613C320.866,-98.3269 309.465,-106.232 299.3,-114.8 274.371,-135.814 253.506,-168.986 244.404,-184.694"/>
<polygon fill="black" stroke="black" points="241.308,-183.061 239.5,-193.5 247.423,-186.466 241.308,-183.061"/>
</g>
<!-- BSetLoop&#45;&gt;BSetExit -->
<g id="edge8" class="edge"><title>BSetLoop&#45;&gt;BSetExit</title>
<path fill="none" stroke="black" d="M432.5,-117.864C432.5,-112.288 432.5,-106.731 432.5,-101.318"/>
<polygon fill="black" stroke="black" points="436,-101.116 432.5,-91.1159 429,-101.116 436,-101.116"/>
</g>
<!-- BSetLoop&#45;&gt;BSetLoop -->
<g id="edge6" class="edge"><title>BSetLoop:se&#45;&gt;BSetLoop:ne</title>
<path fill="none" stroke="black" d="M510.5,-117.5C559.833,-108.5 580.5,-108.5 580.5,-195.5 580.5,-276.383 562.637,-282.07 520.484,-275.238"/>
<polygon fill="black" stroke="black" points="520.952,-271.767 510.5,-273.5 519.752,-278.663 520.952,-271.767"/>
</g>
<!-- MainLoop&#45;&gt;BSetEntry -->
<g id="edge16" class="edge"><title>MainLoop:call_bset&#45;&gt;BSetEntry</title>
<path fill="none" stroke="black" d="M239.5,-193.5C239.5,-193.5 264.968,-246.557 299.3,-276.2 306.402,-282.332 314.141,-288.11 322.196,-293.512"/>
<polygon fill="black" stroke="black" points="320.394,-296.515 330.692,-299.004 324.194,-290.636 320.394,-296.515"/>
</g>
<!-- MainLoop&#45;&gt;MainLoop -->
<g id="edge14" class="edge"><title>MainLoop:sw&#45;&gt;MainLoop:nw</title>
<path fill="none" stroke="black" d="M70.5,-133.5C26.3333,-124.5 0,-124.5 0,-195.5 0,-260.953 22.3795,-266.067 60.479,-259.415"/>
<polygon fill="black" stroke="black" points="61.3347,-262.815 70.5,-257.5 60.0207,-255.939 61.3347,-262.815"/>
</g>
<!-- MainExit -->
<g id="node15" class="node"><title>MainExit</title>
<polygon fill="none" stroke="black" points="118.5,-43.5 118.5,-62.5 146.5,-62.5 146.5,-43.5 118.5,-43.5"/>
<text text-anchor="start" x="121.5" y="-50.4" font-family="Helvetica,sans-Serif" font-size="12.00">Exit</text>
<polygon fill="none" stroke="black" points="118.5,-27.5 118.5,-43.5 146.5,-43.5 146.5,-27.5 118.5,-27.5"/>
<text text-anchor="start" x="121.5" y="-33.5" font-family="Helvetica,sans-Serif" font-size="10.00">ret</text>
</g>
<!-- MainLoop&#45;&gt;MainExit -->
<g id="edge18" class="edge"><title>MainLoop&#45;&gt;MainExit</title>
<path fill="none" stroke="black" d="M132.5,-133.623C132.5,-114.293 132.5,-93.7617 132.5,-77.3843"/>
<polygon fill="black" stroke="black" points="136,-77.2762 132.5,-67.2762 129,-77.2762 136,-77.2762"/>
</g>
<!-- MainEntry -->
<g id="node10" class="node"><title>MainEntry</title>
<polygon fill="none" stroke="black" points="17.5,-382.5 17.5,-403.5 247.5,-403.5 247.5,-382.5 17.5,-382.5"/>
<text text-anchor="start" x="20.5" y="-389.8" font-family="Helvetica,sans-Serif" font-size="14.00">main(%dynamic) &#160;&#160;</text>
<polygon fill="none" stroke="black" points="17.5,-366.5 17.5,-382.5 186.5,-382.5 186.5,-366.5 17.5,-366.5"/>
<text text-anchor="start" x="20.5" y="-372.5" font-family="Helvetica,sans-Serif" font-size="10.00" font-weight="bold">Instruction</text>
<polygon fill="none" stroke="black" points="186.5,-366.5 186.5,-382.5 247.5,-382.5 247.5,-366.5 186.5,-366.5"/>
<text text-anchor="start" x="201.5" y="-372.5" font-family="Helvetica,sans-Serif" font-size="10.00" font-weight="bold">Result</text>
<polygon fill="none" stroke="black" points="17.5,-350.5 17.5,-366.5 186.5,-366.5 186.5,-350.5 17.5,-350.5"/>
<text text-anchor="start" x="20.5" y="-356.5" font-family="Helvetica,sans-Serif" font-size="10.00">%bytes = mul %dynamic, %dynamic</text>
<polygon fill="none" stroke="black" points="186.5,-350.5 186.5,-366.5 247.5,-366.5 247.5,-350.5 186.5,-350.5"/>
<text text-anchor="start" x="214" y="-356.5" font-family="Helvetica,sans-Serif" font-size="10.00">?</text>
<polygon fill="none" stroke="black" points="17.5,-334.5 17.5,-350.5 186.5,-350.5 186.5,-334.5 17.5,-334.5"/>
<text text-anchor="start" x="20.5" y="-340.5" font-family="Helvetica,sans-Serif" font-size="10.00">%buf = alloca [ %bytes x i8 ]</text>
<polygon fill="none" stroke="black" points="186.5,-334.5 186.5,-350.5 247.5,-350.5 247.5,-334.5 186.5,-334.5"/>
<polygon fill="none" stroke="black" points="17.5,-318.5 17.5,-334.5 186.5,-334.5 186.5,-318.5 17.5,-318.5"/>
<text text-anchor="start" x="20.5" y="-324.5" font-family="Helvetica,sans-Serif" font-size="10.00">%pptr = alloca i8**</text>
<polygon fill="none" stroke="black" points="186.5,-318.5 186.5,-334.5 247.5,-334.5 247.5,-318.5 186.5,-318.5"/>
<polygon fill="none" stroke="black" points="17.5,-302.5 17.5,-318.5 186.5,-318.5 186.5,-302.5 17.5,-302.5"/>
<text text-anchor="start" x="20.5" y="-308.5" font-family="Helvetica,sans-Serif" font-size="10.00">store %buf &#45;&gt; %pptr</text>
<polygon fill="none" stroke="black" points="186.5,-302.5 186.5,-318.5 247.5,-318.5 247.5,-302.5 186.5,-302.5"/>
<polygon fill="none" stroke="black" points="17.5,-286.5 17.5,-302.5 186.5,-302.5 186.5,-286.5 17.5,-286.5"/>
<text text-anchor="start" x="20.5" y="-292.5" font-family="Helvetica,sans-Serif" font-size="10.00">br Loop</text>
<polygon fill="none" stroke="black" points="186.5,-286.5 186.5,-302.5 247.5,-302.5 247.5,-286.5 186.5,-286.5"/>
</g>
<!-- MainEntry&#45;&gt;MainLoop -->
<g id="edge12" class="edge"><title>MainEntry&#45;&gt;MainLoop</title>
<path fill="none" stroke="black" d="M132.5,-282.756C132.5,-277.57 132.5,-272.304 132.5,-267.06"/>
<polygon fill="black" stroke="black" points="136,-267.031 132.5,-257.032 129,-267.032 136,-267.031"/>
</g>
</g>
</svg>
