<?xml version="1.0" encoding="UTF-8" standalone="no"?>
<!DOCTYPE svg PUBLIC "-//W3C//DTD SVG 1.1//EN"
 "http://www.w3.org/Graphics/SVG/1.1/DTD/svg11.dtd">
<!-- Generated by graphviz version 2.28.0 (20121116.1526)
 -->
<!-- Title: Toplevel Pages: 1 -->
<svg width="642pt" height="284pt"
 viewBox="0.00 0.00 641.50 284.08" xmlns="http://www.w3.org/2000/svg" xmlns:xlink="http://www.w3.org/1999/xlink">
<g id="graph1" class="graph" transform="scale(1 1) rotate(0) translate(4 280.078)">
<title>Toplevel</title>
<polygon fill="white" stroke="white" points="-4,5 -4,-280.078 638.5,-280.078 638.5,5 -4,5"/>
<!-- F1Entry -->
<g id="node1" class="node"><title>F1Entry</title>
<polygon fill="none" stroke="black" points="108.5,-250.078 108.5,-271.078 218.5,-271.078 218.5,-250.078 108.5,-250.078"/>
<text text-anchor="start" x="111.5" y="-257.378" font-family="Helvetica,sans-Serif" font-size="14.00">Function f1()</text>
<polygon fill="none" stroke="black" points="108.5,-234.078 108.5,-250.078 218.5,-250.078 218.5,-234.078 108.5,-234.078"/>
<text text-anchor="start" x="111.5" y="-240.078" font-family="Helvetica,sans-Serif" font-size="10.00">%buf = alloca [ i8 x ... ]</text>
<polygon fill="none" stroke="black" points="108.5,-218.078 108.5,-234.078 218.5,-234.078 218.5,-218.078 108.5,-218.078"/>
<text text-anchor="start" x="111.5" y="-224.078" font-family="Helvetica,sans-Serif" font-size="10.00">%bufptr = alloca i8*</text>
<polygon fill="none" stroke="black" points="108.5,-202.078 108.5,-218.078 218.5,-218.078 218.5,-202.078 108.5,-202.078"/>
<text text-anchor="start" x="111.5" y="-208.078" font-family="Helvetica,sans-Serif" font-size="10.00">store %buf &#45;&gt; %bufptr</text>
<polygon fill="none" stroke="black" points="108.5,-186.078 108.5,-202.078 218.5,-202.078 218.5,-186.078 108.5,-186.078"/>
<text text-anchor="start" x="111.5" y="-192.078" font-family="Helvetica,sans-Serif" font-size="10.00">br L1</text>
</g>
<!-- F1L1 -->
<g id="node2" class="node"><title>F1L1</title>
<polygon fill="none" stroke="black" points="26.5,-122.078 26.5,-141.078 301.5,-141.078 301.5,-122.078 26.5,-122.078"/>
<text text-anchor="start" x="29.5" y="-128.978" font-family="Helvetica,sans-Serif" font-size="12.00">L1</text>
<polygon fill="none" stroke="black" points="26.5,-106.078 26.5,-122.078 148.5,-122.078 148.5,-106.078 26.5,-106.078"/>
<text text-anchor="start" x="64.5" y="-112.078" font-family="Helvetica,sans-Serif" font-size="10.00" font-weight="bold">Instruction</text>
<polygon fill="none" stroke="black" points="148.5,-106.078 148.5,-122.078 225.5,-122.078 225.5,-106.078 148.5,-106.078"/>
<text text-anchor="start" x="179" y="-112.078" font-family="Helvetica,sans-Serif" font-size="10.00" font-weight="bold">Opt</text>
<polygon fill="none" stroke="black" points="225.5,-106.078 225.5,-122.078 301.5,-122.078 301.5,-106.078 225.5,-106.078"/>
<text text-anchor="start" x="256.5" y="-112.078" font-family="Helvetica,sans-Serif" font-size="10.00" font-weight="bold">Fin</text>
<polygon fill="none" stroke="black" points="26.5,-90.0781 26.5,-106.078 148.5,-106.078 148.5,-90.0781 26.5,-90.0781"/>
<text text-anchor="start" x="29.5" y="-96.0781" font-family="Helvetica,sans-Serif" font-size="10.00">%1 = load %bufptr</text>
<polygon fill="none" stroke="black" points="148.5,-90.0781 148.5,-106.078 225.5,-106.078 225.5,-90.0781 148.5,-90.0781"/>
<text text-anchor="start" x="167" y="-96.0781" font-family="Helvetica,sans-Serif" font-size="10.00">%buf + ?</text>
<polygon fill="none" stroke="black" points="225.5,-90.0781 225.5,-106.078 301.5,-106.078 301.5,-90.0781 225.5,-90.0781"/>
<text text-anchor="start" x="243.5" y="-96.0781" font-family="Helvetica,sans-Serif" font-size="10.00">%buf + ?</text>
<polygon fill="none" stroke="black" points="26.5,-74.0781 26.5,-90.0781 148.5,-90.0781 148.5,-74.0781 26.5,-74.0781"/>
<text text-anchor="start" x="29.5" y="-80.0781" font-family="Helvetica,sans-Serif" font-size="10.00">%2 = getelementptr %1, 1</text>
<polygon fill="none" stroke="black" points="148.5,-74.0781 148.5,-90.0781 225.5,-90.0781 225.5,-74.0781 148.5,-74.0781"/>
<text text-anchor="start" x="167" y="-80.0781" font-family="Helvetica,sans-Serif" font-size="10.00">%buf + ?</text>
<polygon fill="none" stroke="black" points="225.5,-74.0781 225.5,-90.0781 301.5,-90.0781 301.5,-74.0781 225.5,-74.0781"/>
<text text-anchor="start" x="243.5" y="-80.0781" font-family="Helvetica,sans-Serif" font-size="10.00">%buf + ?</text>
<polygon fill="none" stroke="black" points="26.5,-58.0781 26.5,-74.0781 148.5,-74.0781 148.5,-58.0781 26.5,-58.0781"/>
<text text-anchor="start" x="29.5" y="-64.0781" font-family="Helvetica,sans-Serif" font-size="10.00">store %2 &#45;&gt; %bufptr</text>
<polygon fill="none" stroke="black" points="148.5,-58.0781 148.5,-74.0781 225.5,-74.0781 225.5,-58.0781 148.5,-58.0781"/>
<text text-anchor="start" x="152" y="-64.0781" font-family="Helvetica,sans-Serif" font-size="10.00">(writes %bufptr)</text>
<polygon fill="none" stroke="black" points="225.5,-58.0781 225.5,-74.0781 301.5,-74.0781 301.5,-58.0781 225.5,-58.0781"/>
<text text-anchor="start" x="228.5" y="-64.0781" font-family="Helvetica,sans-Serif" font-size="10.00">(writes %bufptr)</text>
<polygon fill="none" stroke="black" points="26.5,-42.0781 26.5,-58.0781 148.5,-58.0781 148.5,-42.0781 26.5,-42.0781"/>
<text text-anchor="start" x="29.5" y="-48.0781" font-family="Helvetica,sans-Serif" font-size="10.00">store 0 &#45;&gt; %1</text>
<polygon fill="none" stroke="black" points="148.5,-42.0781 148.5,-58.0781 225.5,-58.0781 225.5,-42.0781 148.5,-42.0781"/>
<text text-anchor="start" x="151.5" y="-48.0781" font-family="Helvetica,sans-Serif" font-size="10.00">(effects ignored)</text>
<polygon fill="none" stroke="black" points="225.5,-42.0781 225.5,-58.0781 301.5,-58.0781 301.5,-42.0781 225.5,-42.0781"/>
<text text-anchor="start" x="234.5" y="-48.0781" font-family="Helvetica,sans-Serif" font-size="10.00">(writes %buf)</text>
<polygon fill="none" stroke="black" points="26.5,-26.0781 26.5,-42.0781 148.5,-42.0781 148.5,-26.0781 26.5,-26.0781"/>
<text text-anchor="start" x="29.5" y="-32.0781" font-family="Helvetica,sans-Serif" font-size="10.00">br L1</text>
<polygon fill="none" stroke="black" points="148.5,-26.0781 148.5,-42.0781 225.5,-42.0781 225.5,-26.0781 148.5,-26.0781"/>
<polygon fill="none" stroke="black" points="225.5,-26.0781 225.5,-42.0781 301.5,-42.0781 301.5,-26.0781 225.5,-26.0781"/>
</g>
<!-- F1Entry&#45;&gt;F1L1 -->
<g id="edge2" class="edge"><title>F1Entry&#45;&gt;F1L1</title>
<path fill="none" stroke="black" d="M163.5,-182.439C163.5,-173.946 163.5,-164.891 163.5,-155.852"/>
<polygon fill="black" stroke="black" points="167,-155.683 163.5,-145.683 160,-155.683 167,-155.683"/>
</g>
<!-- F1L1&#45;&gt;F1L1 -->
<g id="edge4" class="edge"><title>F1L1:sw&#45;&gt;F1L1:nw</title>
<path fill="none" stroke="black" d="M101.5,-22.0781C47,13.9219 0,13.9219 0,-84.0781 0,-176.91 42.1737,-181.806 92.9463,-151.464"/>
<polygon fill="black" stroke="black" points="94.9027,-154.368 101.5,-146.078 91.1728,-148.445 94.9027,-154.368"/>
</g>
<!-- F2Entry -->
<g id="node5" class="node"><title>F2Entry</title>
<polygon fill="none" stroke="black" points="404.5,-250.078 404.5,-271.078 557.5,-271.078 557.5,-250.078 404.5,-250.078"/>
<text text-anchor="start" x="407.5" y="-257.378" font-family="Helvetica,sans-Serif" font-size="14.00">Function f2(i8* %buf2) &#160;&#160;</text>
<polygon fill="none" stroke="black" points="404.5,-234.078 404.5,-250.078 557.5,-250.078 557.5,-234.078 404.5,-234.078"/>
<text text-anchor="start" x="407.5" y="-240.078" font-family="Helvetica,sans-Serif" font-size="10.00">%buf = alloca [ i8 x ... ]</text>
<polygon fill="none" stroke="black" points="404.5,-218.078 404.5,-234.078 557.5,-234.078 557.5,-218.078 404.5,-218.078"/>
<text text-anchor="start" x="407.5" y="-224.078" font-family="Helvetica,sans-Serif" font-size="10.00">%bufptr = alloca i8*</text>
<polygon fill="none" stroke="black" points="404.5,-202.078 404.5,-218.078 557.5,-218.078 557.5,-202.078 404.5,-202.078"/>
<text text-anchor="start" x="407.5" y="-208.078" font-family="Helvetica,sans-Serif" font-size="10.00">store %buf &#45;&gt; %bufptr</text>
<polygon fill="none" stroke="black" points="404.5,-186.078 404.5,-202.078 557.5,-202.078 557.5,-186.078 404.5,-186.078"/>
<text text-anchor="start" x="407.5" y="-192.078" font-family="Helvetica,sans-Serif" font-size="10.00">br L2</text>
</g>
<!-- F2L1 -->
<g id="node6" class="node"><title>F2L1</title>
<polygon fill="none" stroke="black" points="335.5,-122.078 335.5,-141.078 626.5,-141.078 626.5,-122.078 335.5,-122.078"/>
<text text-anchor="start" x="338.5" y="-128.978" font-family="Helvetica,sans-Serif" font-size="12.00">L2</text>
<polygon fill="none" stroke="black" points="335.5,-106.078 335.5,-122.078 457.5,-122.078 457.5,-106.078 335.5,-106.078"/>
<text text-anchor="start" x="373.5" y="-112.078" font-family="Helvetica,sans-Serif" font-size="10.00" font-weight="bold">Instruction</text>
<polygon fill="none" stroke="black" points="457.5,-106.078 457.5,-122.078 534.5,-122.078 534.5,-106.078 457.5,-106.078"/>
<text text-anchor="start" x="488" y="-112.078" font-family="Helvetica,sans-Serif" font-size="10.00" font-weight="bold">Opt</text>
<polygon fill="none" stroke="black" points="534.5,-106.078 534.5,-122.078 626.5,-122.078 626.5,-106.078 534.5,-106.078"/>
<text text-anchor="start" x="573.5" y="-112.078" font-family="Helvetica,sans-Serif" font-size="10.00" font-weight="bold">Fin</text>
<polygon fill="none" stroke="black" points="335.5,-90.0781 335.5,-106.078 457.5,-106.078 457.5,-90.0781 335.5,-90.0781"/>
<text text-anchor="start" x="338.5" y="-96.0781" font-family="Helvetica,sans-Serif" font-size="10.00">%1 = load %bufptr</text>
<polygon fill="none" stroke="black" points="457.5,-90.0781 457.5,-106.078 534.5,-106.078 534.5,-90.0781 457.5,-90.0781"/>
<text text-anchor="start" x="476" y="-96.0781" font-family="Helvetica,sans-Serif" font-size="10.00">%buf + ?</text>
<polygon fill="none" stroke="black" points="534.5,-90.0781 534.5,-106.078 626.5,-106.078 626.5,-90.0781 534.5,-90.0781"/>
<text text-anchor="start" x="577.5" y="-96.0781" font-family="Helvetica,sans-Serif" font-size="10.00">?</text>
<polygon fill="none" stroke="black" points="335.5,-74.0781 335.5,-90.0781 457.5,-90.0781 457.5,-74.0781 335.5,-74.0781"/>
<text text-anchor="start" x="338.5" y="-80.0781" font-family="Helvetica,sans-Serif" font-size="10.00">%2 = getelementptr %1, 1</text>
<polygon fill="none" stroke="black" points="457.5,-74.0781 457.5,-90.0781 534.5,-90.0781 534.5,-74.0781 457.5,-74.0781"/>
<text text-anchor="start" x="476" y="-80.0781" font-family="Helvetica,sans-Serif" font-size="10.00">%buf + ?</text>
<polygon fill="none" stroke="black" points="534.5,-74.0781 534.5,-90.0781 626.5,-90.0781 626.5,-74.0781 534.5,-74.0781"/>
<text text-anchor="start" x="577.5" y="-80.0781" font-family="Helvetica,sans-Serif" font-size="10.00">?</text>
<polygon fill="none" stroke="black" points="335.5,-58.0781 335.5,-74.0781 457.5,-74.0781 457.5,-58.0781 335.5,-58.0781"/>
<text text-anchor="start" x="338.5" y="-64.0781" font-family="Helvetica,sans-Serif" font-size="10.00">store %2 &#45;&gt; %bufptr</text>
<polygon fill="none" stroke="black" points="457.5,-58.0781 457.5,-74.0781 534.5,-74.0781 534.5,-58.0781 457.5,-58.0781"/>
<text text-anchor="start" x="461" y="-64.0781" font-family="Helvetica,sans-Serif" font-size="10.00">(writes %bufptr)</text>
<polygon fill="none" stroke="black" points="534.5,-58.0781 534.5,-74.0781 626.5,-74.0781 626.5,-58.0781 534.5,-58.0781"/>
<text text-anchor="start" x="545.5" y="-64.0781" font-family="Helvetica,sans-Serif" font-size="10.00">(writes %bufptr)</text>
<polygon fill="none" stroke="black" points="335.5,-42.0781 335.5,-58.0781 457.5,-58.0781 457.5,-42.0781 335.5,-42.0781"/>
<text text-anchor="start" x="338.5" y="-48.0781" font-family="Helvetica,sans-Serif" font-size="10.00">store 0 &#45;&gt; %buf2</text>
<polygon fill="none" stroke="black" points="457.5,-42.0781 457.5,-58.0781 534.5,-58.0781 534.5,-42.0781 457.5,-42.0781"/>
<text text-anchor="start" x="460.5" y="-48.0781" font-family="Helvetica,sans-Serif" font-size="10.00">(effects ignored)</text>
<polygon fill="none" stroke="black" points="534.5,-42.0781 534.5,-58.0781 626.5,-58.0781 626.5,-42.0781 534.5,-42.0781"/>
<text text-anchor="start" x="537.5" y="-48.0781" font-family="Helvetica,sans-Serif" font-size="10.00">(may write %bufptr)</text>
<polygon fill="none" stroke="black" points="335.5,-26.0781 335.5,-42.0781 457.5,-42.0781 457.5,-26.0781 335.5,-26.0781"/>
<text text-anchor="start" x="338.5" y="-32.0781" font-family="Helvetica,sans-Serif" font-size="10.00">br L2</text>
<polygon fill="none" stroke="black" points="457.5,-26.0781 457.5,-42.0781 534.5,-42.0781 534.5,-26.0781 457.5,-26.0781"/>
<polygon fill="none" stroke="black" points="534.5,-26.0781 534.5,-42.0781 626.5,-42.0781 626.5,-26.0781 534.5,-26.0781"/>
</g>
<!-- F2Entry&#45;&gt;F2L1 -->
<g id="edge6" class="edge"><title>F2Entry&#45;&gt;F2L1</title>
<path fill="none" stroke="black" d="M480.5,-182.439C480.5,-173.946 480.5,-164.891 480.5,-155.852"/>
<polygon fill="black" stroke="black" points="484,-155.683 480.5,-145.683 477,-155.683 484,-155.683"/>
</g>
<!-- F2L1&#45;&gt;F2L1 -->
<g id="edge8" class="edge"><title>F2L1:sw&#45;&gt;F2L1:nw</title>
<path fill="none" stroke="black" d="M418.5,-22.0781C361.333,13.9219 309,13.9219 309,-84.0781 309,-177.102 356.153,-181.825 409.835,-151.276"/>
<polygon fill="black" stroke="black" points="411.725,-154.224 418.5,-146.078 408.124,-148.221 411.725,-154.224"/>
</g>
</g>
</svg>
